<svg width="55" height="33" viewBox="0 0 55 33" fill="none" xmlns="http://www.w3.org/2000/svg">
<path d="M40.5682 2.54029e-06C40.0091 -0.000950778 39.4596 0.266439 39.1223 0.763709C37.3473 3.3802 38.3313 5.49802 39.2418 7.45593C39.6885 8.41737 40.0976 9.30245 39.411 9.82312C38.6454 10.4038 38.4961 11.4967 39.0768 12.2622C39.6575 13.0278 40.7503 13.1782 41.5159 12.5975C44.4452 10.3738 43.4742 8.2799 42.4118 5.99519C41.8981 4.89082 41.343 3.69378 42.0046 2.7184C42.5443 1.92288 42.3368 0.840139 41.5413 0.300429C41.2429 0.0980628 40.9036 0.000594255 40.5682 3.54133e-05L40.5682 2.54029e-06ZM6.98663 3.96755C4.3512 3.96755 1.84345 5.26583 0.330405 7.42523C-0.246352 8.24515 -0.0484569 9.37855 0.771462 9.9553C1.59138 10.5321 2.72369 10.3342 3.30048 9.51425C4.75843 7.43585 7.61677 6.99722 9.6214 8.44278L9.62354 8.44065C9.73991 8.52589 9.86805 8.62786 9.99905 8.74742L10.0139 8.76224L10.0456 8.7961C10.1662 8.90731 10.2855 9.02684 10.3947 9.15254L10.4232 9.18854L10.4275 9.19597L10.4285 9.19492L10.4624 9.23828L10.4719 9.24886C11.1421 9.994 12.2918 10.0534 13.0368 9.38321C13.7788 8.71606 13.8427 7.57392 13.1817 6.82776C11.6552 5.03727 9.35809 3.96768 6.98666 3.96768L6.98663 3.96755ZM23.4057 3.96755C20.7703 3.96755 18.2624 5.26583 16.7494 7.42523C16.1726 8.24515 16.3695 9.37855 17.1894 9.9553C18.0093 10.5321 19.1427 10.3342 19.7195 9.51425C21.1775 7.43585 24.0348 6.99722 26.0394 8.44278L26.0415 8.44065C26.1579 8.52589 26.2872 8.62786 26.4181 8.74742L26.4329 8.76224L26.4647 8.7961C26.5853 8.90731 26.7035 9.02684 26.8126 9.15254L26.8423 9.18854L26.8465 9.19597L26.8476 9.19492L26.8814 9.23828L26.8909 9.24883C27.5612 9.99396 28.7108 10.0534 29.4559 9.38318C30.1978 8.71602 30.2606 7.57388 29.5997 6.82773C28.0731 5.03724 25.7772 3.96765 23.4057 3.96765L23.4057 3.96755ZM30.1782 15.3402C29.3847 15.3402 28.7398 15.985 28.7398 16.7787L28.7461 16.8855L28.7334 25.9343H28.7282V25.9407H28.7334C28.7351 27.8442 29.516 29.5786 30.7664 30.8316L30.7707 30.8337L30.7728 30.8369L30.7802 30.8433C32.0315 32.0888 33.7549 32.8637 35.6479 32.8678V32.8731H43.0488C43.1046 32.8731 43.1606 32.8683 43.2148 32.8625C43.6675 32.8485 44.106 32.793 44.5243 32.6985C45.0041 32.5892 45.4603 32.4327 45.8866 32.2363C47.6875 31.404 49.0807 29.8138 49.65 27.8806H50.6676V27.8753C51.8605 27.8737 52.9459 27.3862 53.7297 26.6008C54.5061 25.8235 54.9906 24.7456 54.9947 23.5609V23.5556H55V19.6726H54.9947C54.9931 18.4822 54.5052 17.3969 53.7223 16.6148L53.7255 16.6126C52.9482 15.8354 51.8688 15.3514 50.6792 15.3465H50.6739V15.3402H30.1785H30.1782ZM50.0242 18.6445C50.3865 18.6468 50.7212 18.8009 50.9677 19.0475L50.9709 19.0443L50.973 19.0475C51.2189 19.2925 51.3732 19.6311 51.3739 19.9995H51.3686V23.5957H51.3739C51.3709 23.961 51.2163 24.2995 50.972 24.5445C50.727 24.7904 50.387 24.9436 50.0179 24.9444V24.9391H47.986V24.9433C47.3079 24.9433 46.7266 25.4625 46.6649 26.1513C46.5393 27.5105 45.6753 28.6696 44.4775 29.2228C44.2409 29.3317 43.9944 29.4182 43.7456 29.4746C43.518 29.5255 43.2845 29.5572 43.0517 29.5656L42.9607 29.5634H36.1056V29.5687C35.0919 29.5672 34.1648 29.1504 33.4867 28.4814L33.4624 28.4581C32.7805 27.7769 32.3546 26.8358 32.3538 25.8053H32.3591V25.8H32.3538L32.3633 18.6498H50.0241V18.6445L50.0242 18.6445ZM47.3334 20.4437V23.6168H48.4038C49.0955 23.6168 49.6614 23.0507 49.6614 22.3581V21.7034C49.6614 21.0109 49.0955 20.4436 48.4038 20.4436H47.3334V20.4437ZM10.1535 20.8541C9.16167 20.8541 8.35638 21.6594 8.35638 22.6512C8.35638 23.6429 9.16167 24.4482 10.1535 24.4482L19.9036 24.4493C20.8953 24.4493 21.7006 23.644 21.7006 22.6522C21.7006 21.6604 20.8953 20.8551 19.9036 20.8551L10.1535 20.8541Z" fill="#AC2F2F"/>
</svg>
