<svg width="55" height="45" viewBox="0 0 55 45" fill="none" xmlns="http://www.w3.org/2000/svg">
<path d="M44.6631 9.37297L44.2228 9.18425H37.1774L37.9322 3.77435L3.2711 0L7.73742 11.386C2.95657 15.5377 0 21.7025 0 28.6222C0 34.5982 2.26461 40.0081 5.97605 44.097H39.1274C42.8389 40.0081 45.1035 34.5982 45.1035 28.6222C45.1035 23.2123 43.2792 18.1798 40.1339 14.2796H43.3421C45.2922 15.349 54.099 21.2622 48.6891 37.9322C48.2488 39.2532 48.8149 40.7001 50.0101 41.2033C50.3247 41.3291 50.5763 41.3291 50.8279 41.3291C51.7715 41.3291 52.6522 40.7001 52.9667 39.6936C59.0057 21.1993 50.1989 11.7634 44.6631 9.37297ZM41.2033 21.0735C41.0775 21.0106 41.0146 20.9476 40.8888 20.8847C40.5743 20.696 40.2597 20.5702 39.8194 20.5073C34.1579 19.4379 27.7415 19.8153 22.9606 21.5138C17.2362 23.5268 10.4424 23.7784 3.83726 22.2058C3.77435 22.2058 3.71144 22.1429 3.64854 22.1429C4.65503 17.9911 6.91964 14.4054 10.0649 11.7634H35.0386C35.9192 12.5183 36.7999 13.336 37.5548 14.2796C39.1903 16.2297 40.3855 18.5572 41.2033 21.0735Z" fill="#AC2F2F"/>
</svg>
