<svg width="50" height="35" viewBox="0 0 50 35" fill="none" xmlns="http://www.w3.org/2000/svg">
<path d="M15.0031 27.4976H30.0017C34.142 27.4976 37.5011 24.1385 37.5011 19.9983H40.0009C45.516 19.9983 50 15.5143 50 9.99913C50 4.48398 45.516 0 40.0009 0H9.37855C8.33958 0 7.50371 0.835864 7.50371 1.87484V19.9983C7.50371 24.1385 10.8628 27.4976 15.0031 27.4976ZM40.0009 4.99956C42.7584 4.99956 45.0004 7.24155 45.0004 9.99913C45.0004 12.7567 42.7584 14.9987 40.0009 14.9987H37.5011V4.99956H40.0009ZM43.7271 34.9969H3.77748C0.0590508 34.9969 -0.987733 29.9974 0.965222 29.9974H46.5316C48.4845 29.9974 47.4533 34.9969 43.7271 34.9969Z" fill="#AC2F2F"/>
</svg>
