<svg width="47" height="46" viewBox="0 0 47 46" fill="none" xmlns="http://www.w3.org/2000/svg">
<path fill-rule="evenodd" clip-rule="evenodd" d="M35.9587 28.75C34.3709 28.75 33.0837 30.0372 33.0837 31.625C33.0837 33.2127 34.3709 34.5 35.9587 34.5C37.5464 34.5 38.8337 33.2127 38.8337 31.625C38.8337 30.0372 37.5464 28.75 35.9587 28.75ZM31.167 31.625C31.167 28.9786 33.3123 26.8333 35.9587 26.8333C38.605 26.8333 40.7503 28.9786 40.7503 31.625C40.7503 34.2713 38.605 36.4166 35.9587 36.4166C33.3123 36.4166 31.167 34.2713 31.167 31.625ZM15.8337 28.75C14.2458 28.75 12.9587 30.0372 12.9587 31.625C12.9587 33.2127 14.2458 34.5 15.8337 34.5C17.4215 34.5 18.7087 33.2127 18.7087 31.625C18.7087 30.0372 17.4215 28.75 15.8337 28.75ZM11.042 31.625C11.042 28.9786 13.1873 26.8333 15.8337 26.8333C18.48 26.8333 20.6253 28.9786 20.6253 31.625C20.6253 34.2713 18.48 36.4166 15.8337 36.4166C13.1873 36.4166 11.042 34.2713 11.042 31.625Z" fill="black"/>
<path fill-rule="evenodd" clip-rule="evenodd" d="M8.90818 12.0699C9.10243 10.6453 10.3191 9.58331 11.7568 9.58331H29.0683C30.759 9.58331 32.0845 11.035 31.9316 12.7186L30.2049 31.7118C30.16 32.2053 29.746 32.5833 29.2504 32.5833H19.667C19.1378 32.5833 18.7088 32.1542 18.7088 31.625C18.7088 31.0958 19.1378 30.6666 19.667 30.6666H28.3752L30.0228 12.5451C30.0738 11.9839 29.6318 11.5 29.0683 11.5H11.7568C11.2776 11.5 10.872 11.854 10.8073 12.3288L10.5176 14.4529C10.4461 14.9773 9.96302 15.3445 9.4386 15.273C8.91418 15.2014 8.54702 14.7184 8.61853 14.1939L8.90818 12.0699ZM8.77577 20.1338C9.30019 20.2053 9.66733 20.6883 9.59582 21.2129L8.455 29.5787C8.37653 30.1543 8.82381 30.6666 9.40456 30.6666H12.0005C12.5297 30.6666 12.9588 31.0958 12.9588 31.625C12.9588 32.1542 12.5297 32.5833 12.0005 32.5833H9.40456C7.66234 32.5833 6.32052 31.0461 6.55591 29.3198L7.69673 20.9537C7.76824 20.4293 8.25134 20.0623 8.77577 20.1338Z" fill="black"/>
<path fill-rule="evenodd" clip-rule="evenodd" d="M39.8288 18.7029C38.9264 17.7741 37.6867 17.25 36.3918 17.25H30.546C30.0498 17.25 29.6358 17.6287 29.5915 18.1228L29.1875 22.629L29.1871 22.6343L28.3384 31.534C28.3127 31.8029 28.4016 32.0699 28.5833 32.2698C28.7648 32.4695 29.0224 32.5834 29.2923 32.5834H32.1253C32.6545 32.5834 33.0837 32.1542 33.0837 31.625C33.0837 31.0958 32.6545 30.6667 32.1253 30.6667H30.3465L31.011 23.6979L42.2612 23.9495L43.0639 24.7522C43.4233 25.1116 43.6253 25.5992 43.6253 26.1075V28.75C43.6253 29.8086 42.7672 30.6667 41.7087 30.6667H40.3244C39.7951 30.6667 39.3661 31.0958 39.3661 31.625C39.3661 32.1542 39.7951 32.5834 40.3244 32.5834H41.7087C43.8258 32.5834 45.542 30.8672 45.542 28.75V26.1075C45.542 25.0909 45.1381 24.1159 44.4192 23.397L43.3495 22.3273L39.8288 18.7029ZM40.3494 21.9896L31.1875 21.7847L31.4221 19.1667H36.3918C37.1686 19.1667 37.9125 19.4812 38.454 20.0384L40.3494 21.9896ZM17.7503 15.3334H6.25033V13.4167H17.7503V15.3334ZM13.917 21.0834H2.41699V19.1667H13.917V21.0834Z" fill="black"/>
</svg>
