<svg width="48" height="38" viewBox="0 0 48 38" fill="none" xmlns="http://www.w3.org/2000/svg">
<path d="M47.5576 20.4317L44.7907 17.7016L42.6537 12.0787C42.5469 11.7967 42.3554 11.5535 42.1049 11.3816C41.8543 11.2098 41.5566 11.1174 41.2515 11.1169H38.2521C37.8544 11.1169 37.473 11.2728 37.1917 11.5503C36.9105 11.8278 36.7525 12.2042 36.7525 12.5966C36.7525 12.9891 36.9105 13.3654 37.1917 13.6429C37.473 13.9204 37.8544 14.0763 38.2521 14.0763H40.2092L42.0913 19.0334C42.167 19.2307 42.2846 19.4098 42.4362 19.5587L45.0007 22.089V28.1336H41.1915C40.4676 26.8995 39.3165 25.9649 37.9499 25.5013C36.5833 25.0378 35.093 25.0766 33.7531 25.6107V9.01571C33.7531 8.59187 33.5825 8.18539 33.2788 7.88569C32.975 7.58599 32.563 7.41762 32.1335 7.41762H20.5635C20.0664 5.76088 19.1572 4.25316 17.9186 3.03175C16.68 1.81033 15.1515 0.914037 13.4721 0.424476C11.7928 -0.0650848 10.0159 -0.132356 8.3035 0.228787C6.59106 0.58993 4.99737 1.36801 3.66758 2.49219C2.33778 3.61636 1.31413 5.0509 0.689819 6.66518C0.0655127 8.27946 -0.139606 10.0222 0.093141 11.7347C0.325888 13.4472 0.989106 15.075 2.0224 16.47C3.0557 17.8649 4.42624 18.9827 6.00923 19.7214V29.4949C6.00923 29.9188 6.17987 30.3252 6.48361 30.6249C6.78736 30.9246 7.19932 31.093 7.62887 31.093H8.25874C8.25874 32.6628 8.89074 34.1683 10.0157 35.2783C11.1407 36.3883 12.6665 37.0118 14.2574 37.0118C15.8484 37.0118 17.3742 36.3883 18.4991 35.2783C19.6241 34.1683 20.2561 32.6628 20.2561 31.093H30.004C30.004 32.6628 30.636 34.1683 31.7609 35.2783C32.8859 36.3883 34.4117 37.0118 36.0026 37.0118C37.5936 37.0118 39.1194 36.3883 40.2443 35.2783C41.3693 34.1683 42.0013 32.6628 42.0013 31.093H46.5003C46.8981 31.093 47.2795 30.9371 47.5608 30.6596C47.842 30.3821 48 30.0057 48 29.6133V21.4749C47.9983 21.0831 47.8392 20.7079 47.5576 20.4317ZM3.00989 10.377C3.00989 8.91375 3.44966 7.48332 4.27359 6.26663C5.09752 5.04994 6.2686 4.10165 7.63875 3.54167C9.00889 2.98169 10.5166 2.83518 11.9711 3.12065C13.4256 3.40613 14.7617 4.11077 15.8104 5.14548C16.859 6.18018 17.5732 7.49848 17.8625 8.93366C18.1518 10.3688 18.0033 11.8564 17.4358 13.2084C16.8683 14.5603 15.9072 15.7158 14.6741 16.5287C13.441 17.3417 11.9913 17.7756 10.5082 17.7756C8.51956 17.7756 6.61232 16.9961 5.20611 15.6086C3.79989 14.2211 3.00989 12.3393 3.00989 10.377ZM14.2574 34.0524C13.6642 34.0524 13.0843 33.8789 12.5911 33.5537C12.0978 33.2285 11.7134 32.7663 11.4864 32.2255C11.2594 31.6848 11.2 31.0897 11.3157 30.5156C11.4314 29.9416 11.7171 29.4143 12.1366 29.0004C12.556 28.5865 13.0905 28.3046 13.6723 28.1904C14.2541 28.0763 14.8572 28.1349 15.4052 28.3589C15.9533 28.5828 16.4217 28.9622 16.7513 29.4488C17.0808 29.9355 17.2568 30.5077 17.2568 31.093C17.2568 31.8779 16.9408 32.6306 16.3783 33.1856C15.8158 33.7406 15.0529 34.0524 14.2574 34.0524ZM36.0026 34.0524C35.4094 34.0524 34.8295 33.8789 34.3363 33.5537C33.8431 33.2285 33.4586 32.7663 33.2316 32.2255C33.0046 31.6848 32.9452 31.0897 33.0609 30.5156C33.1767 29.9416 33.4623 29.4143 33.8818 29.0004C34.3013 28.5865 34.8357 28.3046 35.4175 28.1904C35.9993 28.0763 36.6024 28.1349 37.1504 28.3589C37.6985 28.5828 38.1669 28.9622 38.4965 29.4488C38.8261 29.9355 39.002 30.5077 39.002 31.093C39.002 31.8779 38.686 32.6306 38.1235 33.1856C37.561 33.7406 36.7981 34.0524 36.0026 34.0524Z" fill="white"/>
</svg>
