<svg width="44" height="44" viewBox="0 0 44 44" fill="none" xmlns="http://www.w3.org/2000/svg">
<g clip-path="url(#clip0_413_8)">
<path d="M38.2679 8.09885L4.80925 8.24863C3.36035 8.25512 2.19105 9.43494 2.19754 10.8838L2.29424 32.4855C2.30072 33.9344 3.48054 35.1037 4.92944 35.0972L38.3881 34.9474C39.837 34.9409 41.0063 33.7611 40.9998 32.3122L40.9031 10.7106C40.8966 9.26167 39.7168 8.09237 38.2679 8.09885Z" fill="black"/>
<path d="M11.1913 18.3059L7.00027 18.3246C6.00302 18.3291 5.1982 19.1411 5.20266 20.1384L5.21578 23.0692C5.22025 24.0664 6.0323 24.8712 7.02956 24.8668L11.2206 24.848C12.2179 24.8435 13.0227 24.0315 13.0182 23.0342L13.0051 20.1035C13.0006 19.1062 12.1886 18.3014 11.1913 18.3059Z" fill="#FFCC00"/>
<path d="M34.7824 17.6218C36.5582 17.6138 37.9914 16.1678 37.9835 14.3919C37.9755 12.616 36.5295 11.1829 34.7536 11.1908C32.9777 11.1988 31.5445 12.6448 31.5525 14.4207C31.5604 16.1966 33.0065 17.6297 34.7824 17.6218Z" fill="#0052D6"/>
<path d="M5.69409 27.006C5.45663 27.0071 5.26276 26.8156 5.26169 26.5775C5.26063 26.34 5.45278 26.1468 5.69024 26.1457L12.2317 26.1164C12.4692 26.1154 12.6631 26.3069 12.6641 26.5443C12.6652 26.7824 12.4731 26.9757 12.2356 26.9767L5.69409 27.006ZM13.4286 26.9714C13.1905 26.9725 12.9973 26.7809 12.9962 26.5429C12.9951 26.3054 13.1867 26.1122 13.4248 26.1111L20.5117 26.0794C20.7491 26.0783 20.9424 26.2698 20.9434 26.5073C20.9445 26.7454 20.753 26.9386 20.5155 26.9397L13.4286 26.9714ZM22.066 26.9327C21.8279 26.9338 21.6346 26.7423 21.6336 26.5042C21.6325 26.2667 21.824 26.0735 22.0621 26.0724L28.229 26.0448C28.4665 26.0438 28.6597 26.2353 28.6608 26.4727C28.6619 26.7108 28.4703 26.9041 28.2329 26.9051L22.066 26.9327ZM29.7998 26.8981C29.5624 26.8992 29.3691 26.7077 29.3681 26.4696C29.367 26.2321 29.5585 26.0389 29.796 26.0378L36.9515 26.0058C37.1889 26.0047 37.3822 26.1962 37.3832 26.4337C37.3843 26.6718 37.1928 26.865 36.9553 26.8661L29.7998 26.8981ZM5.70263 28.9139C5.46517 28.915 5.2713 28.7235 5.27023 28.486C5.26917 28.2486 5.46132 28.0547 5.69878 28.0536L15.5882 28.0094C15.8256 28.0083 16.0189 28.2004 16.02 28.4379C16.021 28.6754 15.8295 28.8686 15.592 28.8697L5.70263 28.9139ZM5.71254 31.1285C5.47509 31.1296 5.28121 30.9381 5.28015 30.7006C5.27908 30.4631 5.47123 30.2693 5.70869 30.2682L10.5385 30.2466C10.7759 30.2455 10.9692 30.4377 10.9702 30.6751C10.9713 30.9126 10.7798 31.1058 10.5423 31.1069L5.71254 31.1285ZM16.9419 28.8636C16.7044 28.8647 16.5112 28.6732 16.5101 28.4357C16.509 28.1983 16.7006 28.0044 16.938 28.0033L21.0357 27.985C21.2732 27.9839 21.4664 28.1761 21.4675 28.4135C21.4686 28.651 21.2771 28.8442 21.0396 28.8453L16.9419 28.8636Z" fill="#CCCCCC"/>
<path d="M30.4926 17.641C32.2684 17.633 33.7016 16.1869 33.6937 14.4111C33.6857 12.6352 32.2397 11.202 30.4638 11.21C28.6879 11.2179 27.2547 12.664 27.2627 14.4399C27.2706 16.2157 28.7167 17.6489 30.4926 17.641Z" fill="#FF0000"/>
</g>
<defs>
<clipPath id="clip0_413_8">
<rect width="43.0044" height="43.0044" fill="white" transform="translate(0 0.192505) rotate(-0.256488)"/>
</clipPath>
</defs>
</svg>
