<svg width="348" height="194" viewBox="0 0 348 194" fill="none" xmlns="http://www.w3.org/2000/svg">
<path d="M275.121 19.8205C275.783 22.5882 273.918 25.4762 271.15 26.138L144.62 56.7628C143.898 56.9433 143.236 57.3043 142.815 57.8458C142.033 58.6882 141.672 59.9517 141.973 61.155C142.273 62.3583 142.815 62.8998 143.597 63.4413C143.778 63.5617 144.018 63.682 144.259 63.7422C144.921 63.9828 145.643 64.043 146.365 63.8625L166.099 59.1093C175.666 56.7628 185.714 62.6592 187.94 72.2858C189.023 77.039 188.12 81.732 185.774 85.5827C183.427 89.4935 179.517 92.4417 174.763 93.5848L173.139 93.9458C171.214 94.6678 170.07 96.7135 170.552 98.7592C171.033 100.805 171.514 100.745 172.417 101.286C173.319 101.828 174.402 102.068 175.546 101.767L258.515 81.6718C266.036 82.2735 272.835 87.5682 274.64 95.2695C275.723 100.023 274.881 104.776 272.474 108.626C271.692 109.95 270.729 111.093 269.646 112.176L181.141 133.596C179.156 134.077 177.712 135.942 177.892 137.988C178.073 140.033 178.795 140.455 179.817 141.116C180.299 141.417 180.84 141.598 181.442 141.658C181.923 141.718 182.405 141.658 182.946 141.598L230.297 130.166C231.862 129.805 233.486 130.106 234.81 130.888C236.194 131.73 237.277 133.174 237.577 134.979C238.119 138.108 236.013 141.056 232.945 141.778L64.2373 182.571C62.673 182.932 61.0485 182.631 59.7248 181.849C58.4011 181.067 57.4384 179.743 57.0774 178.179C56.2953 174.99 58.2808 171.801 61.4696 171.019L154.247 148.577C156.232 148.096 157.676 146.231 157.496 144.185C157.315 142.139 154.848 139.973 152.442 140.575L99.6153 153.33C93.5986 151.585 88.6649 146.832 87.1608 140.394C86.0778 135.641 86.9803 130.948 89.3268 127.098C90.7708 124.751 92.6961 122.766 95.0426 121.261L150.336 107.904C151.298 107.664 152.081 107.122 152.622 106.4C152.863 106.099 153.043 105.738 153.224 105.377C153.525 104.655 153.585 103.813 153.344 102.971C153.103 102.128 152.682 101.406 152.081 100.865C151.118 99.9625 149.734 99.6015 148.35 99.9023L22.3011 130.407C12.7346 132.753 2.74695 126.857 0.460619 117.23C-0.622381 112.477 0.219952 107.724 2.62662 103.873C4.97312 99.9625 8.88395 97.0143 13.6371 95.8712L97.8103 75.5348C99.7958 75.0535 100.999 73.068 100.518 71.1427C100.036 69.2173 99.6754 69.3978 98.8933 68.8563C98.1111 68.375 97.0883 68.1945 96.1256 68.4352L69.2311 74.9332C67.8473 75.2942 66.4634 74.9933 65.3203 74.3315C64.1771 73.6697 63.3348 72.5265 62.9738 71.1427C62.312 68.375 64.1771 65.487 66.9448 64.8252L171.875 39.4348V39.2543C172.297 38.9535 172.718 38.4722 173.019 37.9908C173.56 37.1485 173.741 36.0655 173.5 34.9825C173.079 33.2978 171.695 32.1547 170.07 31.9742V31.7937C170.07 31.7937 170.07 31.7937 170.01 31.7937L162.309 33.6588C157.375 34.8622 152.201 32.0945 150.697 27.2812C149.854 24.5135 150.276 21.6857 151.659 19.3993C153.043 17.113 155.029 15.7292 157.616 15.0673L218.324 0.38666C223.258 -0.816674 228.432 1.95099 229.936 6.76433C230.779 9.53199 230.357 12.3598 228.974 14.6462C227.71 16.752 225.604 18.3163 223.017 18.9782L221.332 19.3993L221.453 19.8807C221.212 20.1213 220.971 20.4222 220.731 20.723C220.189 21.5653 220.009 22.6483 220.249 23.7313C220.49 24.8143 221.693 26.2583 223.017 26.6193L223.137 27.1007L269.045 15.9698C270.428 15.6088 271.812 15.9097 272.955 16.5715C274.099 17.2333 274.941 18.3765 275.302 19.7603L275.121 19.8205ZM347.081 108.025V107.844C346.9 107.182 346.238 106.761 345.577 106.942L252.318 129.504C251.656 129.685 251.235 130.347 251.416 131.008V131.189C251.596 131.851 252.258 132.272 252.92 132.091L346.178 109.529C346.84 109.348 347.261 108.687 347.081 108.025ZM132.406 32.3953V32.2148C132.226 31.553 131.564 31.1318 130.902 31.3123L86.6193 42.022C85.9575 42.2025 85.5363 42.8643 85.7168 43.5262V43.7067C85.8973 44.3685 86.5591 44.7897 87.2209 44.6092L131.504 33.8995C132.165 33.719 132.587 33.0572 132.406 32.3953ZM281.198 87.508C278.731 88.1096 277.227 90.5765 277.769 93.1035C278.31 95.6305 280.837 97.0745 283.364 96.533C285.891 95.9915 287.335 93.4645 286.794 90.9375C286.252 88.4105 283.725 86.9665 281.198 87.508ZM295.518 84.0785C293.051 84.6802 291.547 87.147 292.088 89.674C292.63 92.201 295.157 93.645 297.684 93.1035C300.211 92.562 301.655 90.035 301.113 87.508C300.512 85.0411 298.045 83.537 295.518 84.0785ZM309.838 80.649C307.371 81.2506 305.867 83.7175 306.408 86.2445C307.01 88.7113 309.477 90.2155 312.004 89.674C314.531 89.1325 315.975 86.6055 315.433 84.0785C314.892 81.5515 312.365 80.1075 309.838 80.649ZM17.3073 184.436C14.8405 185.038 13.3363 187.505 13.8778 190.032C14.4193 192.559 16.9463 194.003 19.4733 193.461C22.0003 192.92 23.4443 190.393 22.9028 187.866C22.3613 185.339 19.8343 183.895 17.3073 184.436ZM31.6269 181.007C29.1601 181.609 27.6559 184.075 28.1974 186.602C28.7389 189.129 31.266 190.573 33.7929 190.032C36.32 189.49 37.764 186.963 37.2225 184.436C36.6208 181.97 34.1539 180.465 31.6269 181.007ZM45.9466 177.577C43.4798 178.179 41.9756 180.646 42.5171 183.173C43.0586 185.7 45.5856 187.144 48.1126 186.602C50.5794 186.001 52.0836 183.534 51.5421 181.007C51.0006 178.48 48.4736 177.036 45.9466 177.577ZM205.027 62.96C201.237 63.8625 198.95 67.653 199.853 71.4435C200.755 75.234 204.546 77.5203 208.336 76.6178C212.127 75.7153 214.413 71.9248 213.511 68.1343C212.608 64.3438 208.818 62.0575 205.027 62.96ZM226.747 57.7255C222.957 58.628 220.671 62.4185 221.573 66.209C222.476 69.9995 226.266 72.2858 230.057 71.3833C233.847 70.4808 236.133 66.6903 235.231 62.8998C234.328 59.1093 230.538 56.823 226.747 57.7255ZM248.468 52.491C244.677 53.3935 242.391 57.184 243.293 60.9745C244.196 64.765 247.986 67.0513 251.777 66.1488C255.567 65.2463 257.854 61.4558 256.951 57.6653C256.049 53.8748 252.258 51.5885 248.468 52.491ZM65.6813 129.143C56.8368 131.249 51.4218 140.154 53.5878 148.998C55.6936 157.843 64.5983 163.258 73.4428 161.092C82.2873 158.986 87.7023 150.081 85.5363 141.237C83.4304 132.392 74.5258 126.977 65.6813 129.143Z" fill="url(#paint0_linear_250_400)"/>
<defs>
<linearGradient id="paint0_linear_250_400" x1="173.559" y1="0.106079" x2="173.559" y2="193.575" gradientUnits="userSpaceOnUse">
<stop stop-color="#C96D27"/>
<stop offset="1" stop-color="#1F0F03"/>
</linearGradient>
</defs>
</svg>
