<svg width="159" height="159" viewBox="0 0 159 159" fill="none" xmlns="http://www.w3.org/2000/svg">
<g clip-path="url(#clip0_295_4)">
<path d="M159.079 143.656C159.079 152.083 152.242 158.92 143.815 158.92C135.388 158.92 128.551 152.083 128.551 143.656C128.551 135.229 135.388 128.392 143.815 128.392C152.242 128.392 159.079 135.229 159.079 143.656ZM143.815 0.105988C135.388 0.105988 128.551 6.94299 128.551 15.37C128.551 23.797 135.388 30.634 143.815 30.634C152.242 30.634 159.079 23.797 159.079 15.37C159.079 6.94299 152.242 0.105988 143.815 0.105988ZM16.7744 0.105988C8.34741 0.105988 1.51041 6.91649 1.51041 15.3435C1.51041 23.7705 8.34741 30.6075 16.7744 30.6075C25.2014 30.6075 32.0384 23.7705 32.0384 15.3435C32.0384 6.91649 25.2014 0.105988 16.7744 0.105988ZM17.1984 128.339C8.77141 128.339 1.93441 135.176 1.93441 143.603C1.93441 152.03 8.77141 158.867 17.1984 158.867C25.6254 158.867 32.4624 152.03 32.4624 143.603C32.4624 135.176 25.6254 128.339 17.1984 128.339ZM144.981 43.937C144.663 43.778 144.345 43.6985 144.001 43.6985C136.925 43.6985 130.486 40.9955 125.663 36.57C124.656 35.6425 123.728 34.662 122.854 33.5755C119.091 28.9115 116.838 22.9755 116.838 16.536C116.838 10.0965 116.838 16.271 116.812 16.165C116.812 16.006 116.812 15.847 116.812 15.688C116.812 15.529 116.812 15.3965 116.812 15.2375C116.812 6.86349 110.028 0.105988 101.68 0.105988C93.3329 0.105988 86.5489 6.88999 86.5489 15.2375C86.5489 23.585 86.5489 15.953 86.5754 16.324C86.5754 16.43 86.5754 16.536 86.5754 16.6155C86.5754 16.748 86.5754 16.8805 86.6284 17.013C86.6284 17.119 86.6549 17.2515 86.6814 17.3575C86.6814 17.5165 86.7344 17.6755 86.7609 17.8345C86.8139 18.126 86.8669 18.444 86.9464 18.7355C86.9464 18.7885 86.9464 18.8415 86.9729 18.8945C86.9729 18.974 87.0259 19.08 87.0524 19.1595C87.0789 19.2655 87.1054 19.398 87.1584 19.504C87.1849 19.61 87.2379 19.7425 87.2644 19.8485C87.2909 19.9545 87.3439 20.087 87.3704 20.193C87.3969 20.299 87.4499 20.405 87.4764 20.511C87.5824 20.8025 87.6884 21.0675 87.8209 21.3325C87.8739 21.4385 87.9004 21.5445 87.9534 21.6505C88.0064 21.7565 88.0594 21.8625 88.1124 21.942C88.1654 22.048 88.2184 22.154 88.2714 22.2335C88.4569 22.6045 88.6689 22.949 88.8809 23.2935C88.9339 23.3995 89.0134 23.479 89.0664 23.585C89.1194 23.691 89.1989 23.7705 89.2519 23.8765C90.2324 25.281 91.4514 26.5265 92.8559 27.5335C92.9354 27.5865 93.0414 27.666 93.1209 27.719C93.2004 27.772 93.3064 27.8515 93.4124 27.9045C93.4919 27.9575 93.5714 28.0105 93.6244 28.037C93.7569 28.1165 93.8894 28.196 94.0219 28.2755C94.2074 28.3815 94.3929 28.4875 94.5784 28.567C94.8169 28.6995 95.0554 28.832 95.3204 28.938C95.3999 28.991 95.5059 29.0175 95.5854 29.0705C95.7709 29.15 95.9564 29.2295 96.1419 29.309C96.2479 29.362 96.3539 29.3885 96.4599 29.4415C96.5659 29.468 96.6719 29.521 96.7779 29.5475C96.8839 29.574 96.9899 29.627 97.0959 29.6535C97.2019 29.68 97.3079 29.733 97.4139 29.7595C97.5199 29.786 97.6259 29.8125 97.7319 29.839C97.9704 29.892 98.1824 29.9715 98.4209 29.998C98.5269 29.998 98.6594 30.051 98.7654 30.0775C98.8714 30.0775 99.0039 30.1305 99.1099 30.1305C99.2159 30.1305 99.3219 30.157 99.4279 30.1835C99.4279 30.1835 99.4544 30.1835 99.4809 30.1835C99.5869 30.1835 99.6929 30.21 99.7989 30.2365C99.8254 30.2365 99.8519 30.2365 99.8784 30.2365C99.9049 30.2365 99.9314 30.2365 99.9579 30.2365C99.9579 30.2365 99.9844 30.2365 100.011 30.2365C100.143 30.2365 100.249 30.2365 100.382 30.263C100.567 30.263 100.753 30.263 100.938 30.263C101.442 30.263 101.945 30.263 102.449 30.316C108.888 30.6605 114.745 33.178 119.276 37.153C120.257 38.0275 121.184 38.955 122.059 39.962C126.113 44.679 128.631 50.774 128.816 57.452C128.816 57.717 128.816 57.9555 128.816 58.194C128.816 58.777 128.816 59.36 128.763 59.943C128.366 66.25 125.901 71.9475 122.059 76.426C120.893 77.7775 119.594 78.9965 118.216 80.1095C113.473 83.8725 107.457 86.125 100.912 86.125C94.3664 86.125 100.223 86.231 100.037 86.39C99.7989 86.39 99.5604 86.443 99.3484 86.4695C99.1099 86.496 98.8714 86.549 98.6594 86.602C98.3944 86.655 98.1294 86.708 97.8909 86.7875C97.7584 86.814 97.6524 86.8405 97.5199 86.8935C97.1489 86.9995 96.8044 87.1055 96.4334 87.238C96.3274 87.2645 96.2214 87.3175 96.1154 87.3705C96.0094 87.4235 95.8769 87.45 95.7709 87.503C95.6649 87.556 95.5324 87.609 95.4264 87.662C94.8699 87.927 94.3134 88.192 93.8099 88.51C93.7039 88.563 93.5979 88.6425 93.4919 88.6955C93.2799 88.828 93.0944 88.9605 92.8824 89.093C92.7764 89.1725 92.6969 89.2255 92.5909 89.305C91.5044 90.1 90.5504 91.054 89.7024 92.114C89.6494 92.1935 89.5699 92.273 89.5169 92.379C89.3579 92.591 89.2254 92.7765 89.0929 92.9885C89.0399 93.0945 88.9604 93.174 88.9074 93.28C88.8279 93.386 88.7749 93.492 88.7219 93.598C88.6689 93.704 88.5894 93.81 88.5364 93.916C88.3509 94.234 88.1919 94.552 88.0329 94.8965C87.9799 95.0025 87.9269 95.1085 87.8739 95.2145C87.8209 95.3205 87.7679 95.453 87.7149 95.559C87.6619 95.665 87.6089 95.7975 87.5559 95.9035C87.4764 96.1155 87.3969 96.3275 87.3174 96.566C87.2644 96.6985 87.2114 96.8575 87.1849 96.99C87.1584 97.096 87.1319 97.202 87.1054 97.308C87.0524 97.52 86.9994 97.7055 86.9464 97.9175C86.9199 98.0235 86.8934 98.156 86.8669 98.262C86.8669 98.3415 86.8404 98.421 86.8139 98.474C86.8139 98.5535 86.7874 98.633 86.7609 98.739C86.7609 98.8185 86.7344 98.9245 86.7079 99.0305C86.6814 99.1365 86.6814 99.216 86.6549 99.322C86.6549 99.4015 86.6549 99.5075 86.6284 99.587C86.6284 99.693 86.6284 99.799 86.6019 99.905C86.6019 99.958 86.6019 100.011 86.6019 100.064C86.6019 100.17 86.6019 100.276 86.6019 100.408C86.6019 100.541 86.6019 100.647 86.6019 100.779C86.6019 101.018 86.6019 101.256 86.6019 101.495C86.6019 109.869 93.3859 116.626 101.733 116.626C110.081 116.626 103.774 116.52 104.728 116.335C104.86 116.335 104.966 116.282 105.099 116.255C105.443 116.176 105.788 116.096 106.132 115.99C106.238 115.964 106.371 115.911 106.477 115.884C106.609 115.831 106.768 115.778 106.901 115.725C107.007 115.699 107.113 115.646 107.192 115.619C107.298 115.566 107.431 115.54 107.537 115.487C107.643 115.434 107.749 115.381 107.881 115.354C107.987 115.301 108.093 115.248 108.199 115.195C108.305 115.142 108.411 115.089 108.517 115.036C108.623 114.983 108.729 114.93 108.835 114.877C108.941 114.824 109.047 114.771 109.153 114.692C109.259 114.639 109.365 114.586 109.471 114.506C109.577 114.453 109.683 114.374 109.789 114.321C109.895 114.268 110.001 114.188 110.081 114.135C110.187 114.082 110.266 114.003 110.372 113.95C110.664 113.738 110.955 113.526 111.247 113.314C111.432 113.155 111.618 113.022 111.803 112.863C111.989 112.704 111.989 112.704 112.068 112.625C112.148 112.545 112.254 112.466 112.333 112.386C112.519 112.201 112.704 112.015 112.89 111.83C112.943 111.75 113.022 111.697 113.075 111.618C113.234 111.432 113.393 111.273 113.526 111.061C113.605 110.982 113.685 110.876 113.738 110.77C113.817 110.69 113.87 110.584 113.95 110.478C114.003 110.425 114.056 110.346 114.082 110.293C114.135 110.213 114.188 110.134 114.241 110.054C114.268 110.001 114.321 109.948 114.347 109.869C114.4 109.763 114.48 109.657 114.533 109.577L114.718 109.286C114.771 109.18 114.851 109.074 114.904 108.968C114.957 108.862 115.01 108.756 115.089 108.65C115.142 108.544 115.195 108.438 115.248 108.332C115.434 107.987 115.566 107.643 115.725 107.298C115.752 107.192 115.805 107.113 115.831 107.007C115.884 106.901 115.911 106.768 115.964 106.662C116.017 106.556 116.043 106.424 116.096 106.318C116.123 106.212 116.176 106.079 116.202 105.973C116.202 105.92 116.255 105.841 116.255 105.761C116.282 105.655 116.308 105.549 116.335 105.443C116.335 105.364 116.388 105.284 116.388 105.178C116.388 105.072 116.441 104.993 116.467 104.887C116.467 104.781 116.52 104.675 116.547 104.569C116.6 104.357 116.626 104.118 116.653 103.906C116.653 103.827 116.679 103.721 116.706 103.641C116.732 103.403 116.759 103.138 116.785 102.899C116.785 102.793 116.785 102.661 116.812 102.555C116.812 102.422 116.812 102.29 116.812 102.157C116.812 102.078 116.812 101.998 116.812 101.919C116.812 101.839 116.812 101.786 116.812 101.733C116.812 101.601 116.812 101.442 116.812 101.309C116.918 95.029 119.144 89.252 122.827 84.694C123.993 83.263 125.265 81.9645 126.696 80.7985C131.387 76.9295 137.402 74.5975 143.974 74.5975C150.546 74.5975 145.14 74.2 145.14 74.2C152.931 73.564 159.053 67.045 159.053 59.1215C159.053 51.198 152.825 44.5465 144.955 44.0165L144.981 43.937ZM15.6084 115.063C15.9264 115.222 16.2444 115.301 16.5889 115.301C23.6644 115.301 30.1039 118.004 34.9269 122.43C35.9339 123.357 36.8614 124.338 37.7359 125.424C41.4989 130.088 43.7514 136.024 43.7514 142.464C43.7514 148.903 43.7514 142.729 43.7779 142.835C43.7779 142.994 43.7779 143.153 43.7779 143.312C43.7779 143.471 43.7779 143.603 43.7779 143.762C43.7779 152.136 50.5619 158.894 58.9094 158.894C67.2569 158.894 74.0409 152.11 74.0409 143.762C74.0409 135.415 74.0409 143.047 74.0144 142.676C74.0144 142.57 74.0144 142.464 74.0144 142.384C74.0144 142.252 74.0144 142.119 73.9614 141.987C73.9614 141.881 73.9349 141.748 73.9084 141.642C73.9084 141.483 73.8554 141.324 73.8289 141.165C73.7759 140.874 73.7229 140.556 73.6434 140.264C73.6434 140.211 73.6434 140.158 73.6169 140.105C73.6169 140.026 73.5639 139.92 73.5374 139.84C73.5109 139.734 73.4844 139.602 73.4314 139.496C73.4049 139.39 73.3519 139.257 73.3254 139.151C73.2989 139.045 73.2459 138.913 73.2194 138.807C73.1929 138.701 73.1399 138.595 73.1134 138.489C73.0074 138.197 72.9014 137.932 72.7689 137.667C72.7159 137.561 72.6894 137.455 72.6364 137.349C72.5834 137.243 72.5304 137.137 72.4774 137.058C72.4244 136.952 72.3714 136.846 72.3184 136.766C72.1329 136.395 71.9209 136.051 71.7089 135.706C71.6559 135.6 71.5764 135.521 71.5234 135.415C71.4704 135.309 71.3909 135.229 71.3379 135.123C70.3574 133.719 69.1384 132.473 67.7339 131.466C67.6544 131.413 67.5484 131.334 67.4689 131.281C67.3894 131.228 67.2834 131.148 67.1774 131.095C67.0979 131.042 67.0184 130.989 66.9654 130.963C66.8329 130.883 66.7004 130.804 66.5679 130.724C66.3824 130.618 66.1969 130.512 66.0114 130.433C65.7729 130.3 65.5344 130.168 65.2694 130.062C65.1899 130.009 65.0839 129.982 65.0044 129.929C64.8189 129.85 64.6334 129.77 64.4479 129.691C64.3419 129.638 64.2359 129.611 64.1299 129.558C64.0239 129.532 63.9179 129.479 63.8119 129.452C63.7059 129.426 63.5999 129.373 63.4939 129.346C63.3879 129.32 63.2819 129.267 63.1759 129.24C63.0699 129.214 62.9639 129.187 62.8579 129.161C62.6194 129.108 62.4074 129.028 62.1689 129.002C62.0629 129.002 61.9304 128.949 61.8244 128.922C61.7184 128.922 61.5859 128.869 61.4799 128.869C61.3739 128.869 61.2679 128.843 61.1619 128.816C61.1619 128.816 61.1354 128.816 61.1089 128.816C61.0029 128.816 60.8969 128.79 60.7909 128.763C60.7644 128.763 60.7379 128.763 60.7114 128.763C60.6849 128.763 60.6584 128.763 60.6319 128.763C60.6319 128.763 60.6054 128.763 60.5789 128.763C60.4464 128.763 60.3404 128.763 60.2079 128.737C60.0224 128.737 59.8369 128.737 59.6514 128.737C59.1479 128.737 58.6444 128.737 58.1409 128.684C51.7014 128.339 45.8449 125.822 41.3134 121.847C40.3329 120.972 39.4054 120.045 38.5309 119.038C34.4764 114.321 31.9589 108.226 31.7734 101.548C31.7734 101.283 31.7734 101.044 31.7734 100.806C31.7734 100.223 31.7734 99.64 31.8264 99.057C32.2239 92.75 34.6884 87.0525 38.5309 82.574C39.6969 81.2225 40.9954 80.0035 42.3734 78.8905C47.1169 75.1275 53.1324 72.875 59.6779 72.875C66.2234 72.875 60.3669 72.769 60.5524 72.61C60.7909 72.61 61.0294 72.557 61.2414 72.5305C61.4799 72.504 61.7184 72.451 61.9304 72.398C62.1954 72.345 62.4604 72.292 62.6989 72.2125C62.8314 72.186 62.9374 72.1595 63.0699 72.1065C63.4409 72.0005 63.7854 71.8945 64.1564 71.762C64.2624 71.7355 64.3684 71.6825 64.4744 71.6295C64.5804 71.5765 64.7129 71.55 64.8189 71.497C64.9249 71.444 65.0574 71.391 65.1634 71.338C65.7199 71.073 66.2764 70.808 66.7799 70.49C66.8859 70.437 66.9919 70.3575 67.0979 70.3045C67.3099 70.172 67.4954 70.0395 67.7074 69.907C67.8134 69.8275 67.8929 69.7745 67.9989 69.695C69.0854 68.9 70.0394 67.946 70.8874 66.886C70.9404 66.8065 71.0199 66.727 71.0729 66.621C71.2319 66.409 71.3644 66.2235 71.4969 66.0115C71.5499 65.9055 71.6294 65.826 71.6824 65.72C71.7619 65.614 71.8149 65.508 71.8679 65.402C71.9209 65.296 72.0004 65.19 72.0534 65.084C72.2389 64.766 72.3979 64.448 72.5569 64.1035C72.6099 63.9975 72.6629 63.8915 72.7159 63.7855C72.7689 63.6795 72.8219 63.547 72.8749 63.441C72.9279 63.335 72.9809 63.2025 73.0339 63.0965C73.1134 62.8845 73.1929 62.6725 73.2724 62.434C73.3254 62.3015 73.3784 62.1425 73.4049 62.01C73.4314 61.904 73.4579 61.798 73.4844 61.692C73.5374 61.48 73.5904 61.2945 73.6434 61.0825C73.6699 60.9765 73.6964 60.844 73.7229 60.738C73.7229 60.6585 73.7494 60.579 73.7759 60.526C73.7759 60.4465 73.8024 60.367 73.8289 60.261C73.8289 60.1815 73.8554 60.0755 73.8819 59.9695C73.9084 59.8635 73.9084 59.784 73.9349 59.678C73.9349 59.5985 73.9349 59.4925 73.9614 59.413C73.9614 59.307 73.9614 59.201 73.9879 59.095C73.9879 59.042 73.9879 58.989 73.9879 58.936C73.9879 58.83 73.9879 58.724 73.9879 58.5915C73.9879 58.459 73.9879 58.353 73.9879 58.2205C73.9879 57.982 73.9879 57.7435 73.9879 57.505C73.9879 49.131 67.2039 42.3735 58.8564 42.3735C50.5089 42.3735 56.8159 42.4795 55.8619 42.665C55.7294 42.665 55.6234 42.718 55.4909 42.7445C55.1464 42.824 54.8019 42.9035 54.4574 43.0095C54.3514 43.036 54.2189 43.089 54.1129 43.1155C53.9804 43.1685 53.8214 43.2215 53.6889 43.2745C53.5829 43.301 53.4769 43.354 53.3974 43.3805C53.2914 43.4335 53.1589 43.46 53.0529 43.513C52.9469 43.566 52.8409 43.619 52.7084 43.6455C52.6024 43.6985 52.4964 43.7515 52.3904 43.8045C52.2844 43.8575 52.1784 43.9105 52.0724 43.9635C51.9664 44.0165 51.8604 44.0695 51.7544 44.1225C51.6484 44.1755 51.5424 44.2285 51.4364 44.308C51.3304 44.361 51.2244 44.414 51.1184 44.4935C51.0124 44.5465 50.9064 44.626 50.8004 44.679C50.6944 44.732 50.5884 44.8115 50.5089 44.8645C50.4029 44.9175 50.3234 44.997 50.2174 45.05C49.9259 45.262 49.6344 45.474 49.3429 45.686C49.1574 45.845 48.9719 45.9775 48.7864 46.1365C48.6009 46.2955 48.6009 46.2955 48.5214 46.375C48.4419 46.4545 48.3359 46.534 48.2564 46.6135C48.0709 46.799 47.8854 46.9845 47.6999 47.17C47.6469 47.2495 47.5674 47.3025 47.5144 47.382C47.3554 47.5675 47.1964 47.7265 47.0639 47.9385C46.9844 48.018 46.9049 48.124 46.8519 48.23C46.7724 48.3095 46.7194 48.4155 46.6399 48.5215C46.5869 48.5745 46.5339 48.654 46.5074 48.707C46.4544 48.7865 46.4014 48.866 46.3484 48.9455C46.3219 48.9985 46.2689 49.0515 46.2424 49.131C46.1894 49.237 46.1099 49.343 46.0569 49.4225L45.8714 49.714C45.8184 49.82 45.7389 49.926 45.6859 50.032C45.6329 50.138 45.5799 50.244 45.5004 50.35C45.4474 50.456 45.3944 50.562 45.3414 50.668C45.1559 51.0125 45.0234 51.357 44.8644 51.7015C44.8379 51.8075 44.7849 51.887 44.7584 51.993C44.7054 52.099 44.6789 52.2315 44.6259 52.3375C44.5729 52.4435 44.5464 52.576 44.4934 52.682C44.4669 52.788 44.4139 52.9205 44.3874 53.0265C44.3874 53.0795 44.3344 53.159 44.3344 53.2385C44.3079 53.3445 44.2814 53.4505 44.2549 53.5565C44.2549 53.636 44.2019 53.7155 44.2019 53.8215C44.2019 53.9275 44.1489 54.007 44.1224 54.113C44.1224 54.219 44.0694 54.325 44.0429 54.431C43.9899 54.643 43.9634 54.8815 43.9369 55.0935C43.9369 55.173 43.9104 55.279 43.8839 55.3585C43.8574 55.597 43.8309 55.862 43.8044 56.1005C43.8044 56.2065 43.8044 56.339 43.7779 56.445C43.7779 56.5775 43.7779 56.71 43.7779 56.8425C43.7779 56.922 43.7779 57.0015 43.7779 57.081C43.7779 57.1605 43.7779 57.2135 43.7779 57.2665C43.7779 57.399 43.7779 57.558 43.7779 57.6905C43.6719 63.971 41.4459 69.748 37.7624 74.306C36.5964 75.737 35.3244 77.0355 33.8934 78.2015C29.2029 82.0705 23.1874 84.4025 16.6154 84.4025C10.0434 84.4025 15.4494 84.8 15.4494 84.8C7.65841 85.436 1.53691 91.955 1.53691 99.8785C1.53691 107.802 7.76441 114.453 15.6349 114.983L15.6084 115.063ZM115.248 144.743C115.407 144.425 115.487 144.107 115.487 143.762C115.487 136.687 118.19 130.247 122.615 125.424C123.543 124.417 124.523 123.49 125.61 122.615C130.274 118.852 136.21 116.6 142.649 116.6C142.782 116.6 142.914 116.6 143.02 116.573C143.179 116.573 143.338 116.573 143.497 116.573C143.656 116.573 143.789 116.573 143.948 116.573C152.322 116.573 159.079 109.789 159.079 101.442C159.079 93.068 152.295 86.3105 143.948 86.3105C135.6 86.3105 143.232 86.3105 142.861 86.337C142.755 86.337 142.649 86.337 142.57 86.337C142.437 86.337 142.305 86.337 142.172 86.39C142.066 86.39 141.934 86.4165 141.828 86.443C141.669 86.443 141.51 86.496 141.351 86.5225C141.059 86.5755 140.741 86.6285 140.45 86.708C140.397 86.708 140.344 86.708 140.291 86.7345C140.211 86.7345 140.105 86.7875 140.026 86.814C139.92 86.8405 139.787 86.867 139.681 86.92C139.575 86.9465 139.443 86.9995 139.337 87.026C139.231 87.0525 139.098 87.1055 138.992 87.132C138.886 87.1585 138.78 87.2115 138.674 87.238C138.383 87.344 138.118 87.45 137.853 87.5825C137.747 87.6355 137.641 87.662 137.535 87.715C137.429 87.768 137.323 87.821 137.243 87.874C137.137 87.927 137.031 87.98 136.952 88.033C136.581 88.2185 136.236 88.4305 135.892 88.6425C135.786 88.6955 135.706 88.775 135.6 88.828C135.494 88.881 135.415 88.9605 135.309 89.0135C133.904 89.994 132.659 91.213 131.652 92.6175C131.599 92.697 131.519 92.803 131.466 92.8825C131.413 92.962 131.334 93.068 131.281 93.174C131.228 93.2535 131.175 93.333 131.148 93.386C131.069 93.5185 130.989 93.651 130.91 93.7835C130.804 93.969 130.698 94.1545 130.618 94.34C130.486 94.5785 130.353 94.817 130.247 95.082C130.194 95.1615 130.168 95.2675 130.115 95.347C130.035 95.5325 129.956 95.718 129.876 95.9035C129.823 96.0095 129.797 96.1155 129.744 96.2215C129.717 96.3275 129.664 96.4335 129.638 96.5395C129.611 96.6455 129.558 96.7515 129.532 96.8575C129.505 96.9635 129.452 97.0695 129.426 97.1755C129.399 97.2815 129.373 97.3875 129.346 97.4935C129.293 97.732 129.214 97.944 129.187 98.1825C129.187 98.2885 129.134 98.421 129.108 98.527C129.108 98.633 129.055 98.7655 129.055 98.8715C129.055 98.9775 129.028 99.0835 129.002 99.1895C129.002 99.1895 129.002 99.216 129.002 99.2425C129.002 99.3485 128.975 99.4545 128.949 99.5605C128.949 99.587 128.949 99.6135 128.949 99.64C128.949 99.6665 128.949 99.693 128.949 99.7195C128.949 99.7195 128.949 99.746 128.949 99.7725C128.949 99.905 128.949 100.011 128.922 100.143C128.922 100.329 128.922 100.514 128.922 100.726C128.922 101.23 128.922 101.733 128.869 102.237C128.525 108.676 126.007 114.533 122.032 119.091C121.158 120.071 120.23 120.999 119.223 121.873C114.506 125.928 108.411 128.445 101.733 128.631C101.495 128.631 101.23 128.631 100.991 128.631C100.408 128.631 99.8254 128.631 99.2424 128.578C92.9619 128.18 87.2644 125.716 82.7859 121.873C81.4344 120.707 80.2154 119.409 79.1024 118.031C75.3394 113.287 73.0869 107.272 73.0869 100.726C73.0869 94.181 72.9809 100.037 72.8219 99.852C72.8219 99.6135 72.7689 99.375 72.7424 99.163C72.7159 98.9245 72.6629 98.686 72.6099 98.474C72.5569 98.209 72.5039 97.944 72.4244 97.7055C72.3979 97.573 72.3714 97.467 72.3184 97.3345C72.2124 96.9635 72.1064 96.619 71.9739 96.248C71.9474 96.142 71.8944 96.036 71.8414 95.93C71.7884 95.824 71.7619 95.6915 71.7089 95.5855C71.6559 95.4795 71.6029 95.347 71.5499 95.241C71.2849 94.6845 71.0199 94.128 70.7019 93.6245C70.6489 93.5185 70.5694 93.4125 70.5164 93.3065C70.3839 93.0945 70.2514 92.909 70.1189 92.697C70.0394 92.591 69.9864 92.5115 69.9069 92.4055C69.1119 91.319 68.1579 90.365 67.0979 89.517C67.0184 89.464 66.9389 89.3845 66.8329 89.3315C66.6209 89.1725 66.4354 89.04 66.2234 88.9075C66.1174 88.8545 66.0379 88.775 65.9319 88.722C65.8259 88.6425 65.7199 88.5895 65.6139 88.5365C65.5079 88.4835 65.4019 88.404 65.2959 88.351C64.9779 88.1655 64.6599 88.0065 64.3154 87.8475C64.2094 87.7945 64.1034 87.7415 63.9974 87.6885C63.8914 87.6355 63.7589 87.5825 63.6529 87.5295C63.5469 87.4765 63.4144 87.4235 63.3084 87.3705C63.0964 87.291 62.8844 87.2115 62.6459 87.132C62.5134 87.079 62.3544 87.026 62.2219 86.9995C62.1159 86.973 62.0099 86.9465 61.9039 86.92C61.6919 86.867 61.5064 86.814 61.2944 86.761C61.1884 86.7345 61.0559 86.708 60.9499 86.6815C60.8704 86.6815 60.7909 86.655 60.7379 86.6285C60.6584 86.6285 60.5789 86.602 60.4729 86.5755C60.3934 86.5755 60.2874 86.549 60.1814 86.5225C60.0754 86.496 59.9959 86.496 59.8899 86.4695C59.8104 86.4695 59.7044 86.4695 59.6249 86.443C59.5189 86.443 59.4129 86.443 59.3069 86.4165C59.2539 86.4165 59.2009 86.4165 59.1479 86.4165C59.0419 86.4165 58.9359 86.4165 58.8034 86.4165C58.6709 86.4165 58.5649 86.4165 58.4324 86.4165C58.1939 86.4165 57.9554 86.4165 57.7169 86.4165C49.3429 86.4165 42.5854 93.2005 42.5854 101.548C42.5854 102.581 42.6914 103.588 42.8769 104.542C42.8769 104.675 42.9299 104.781 42.9564 104.913C43.0359 105.258 43.1154 105.602 43.2214 105.947C43.2479 106.053 43.3009 106.185 43.3274 106.291C43.3804 106.424 43.4334 106.583 43.4864 106.715C43.5129 106.821 43.5659 106.927 43.5924 107.007C43.6454 107.113 43.6719 107.245 43.7249 107.351C43.7779 107.457 43.8309 107.563 43.8574 107.696C43.9104 107.802 43.9634 107.908 44.0164 108.014C44.0694 108.12 44.1224 108.226 44.1754 108.332C44.2284 108.438 44.2814 108.544 44.3344 108.65C44.3874 108.756 44.4404 108.862 44.5199 108.968C44.5729 109.074 44.6259 109.18 44.7054 109.286C44.7584 109.392 44.8379 109.498 44.8909 109.604C44.9439 109.71 45.0234 109.816 45.0764 109.895C45.1294 110.001 45.2089 110.081 45.2619 110.187C45.4739 110.478 45.6859 110.77 45.8979 111.061C46.0569 111.247 46.1894 111.432 46.3484 111.618C46.5074 111.803 46.5074 111.803 46.5869 111.883C46.6664 111.962 46.7459 112.068 46.8254 112.148C47.0109 112.333 47.1964 112.519 47.3819 112.704C47.4614 112.757 47.5144 112.837 47.5939 112.89C47.7794 113.049 47.9384 113.208 48.1504 113.34C48.2299 113.42 48.3359 113.499 48.4419 113.552C48.5214 113.632 48.6274 113.685 48.7334 113.764C48.7864 113.817 48.8659 113.87 48.9189 113.897C48.9984 113.95 49.0779 114.003 49.1574 114.056C49.2104 114.082 49.2634 114.135 49.3429 114.162C49.4489 114.215 49.5549 114.294 49.6344 114.347L49.9259 114.533C50.0319 114.586 50.1379 114.665 50.2439 114.718C50.3499 114.771 50.4559 114.824 50.5619 114.904C50.6679 114.957 50.7739 115.01 50.8799 115.063C51.2244 115.248 51.5689 115.381 51.9134 115.54C52.0194 115.566 52.0989 115.619 52.2049 115.646C52.3109 115.699 52.4434 115.725 52.5494 115.778C52.6554 115.831 52.7879 115.858 52.8939 115.911C52.9999 115.937 53.1324 115.99 53.2384 116.017C53.2914 116.017 53.3709 116.07 53.4504 116.07C53.5564 116.096 53.6624 116.123 53.7684 116.149C53.8479 116.149 53.9274 116.202 54.0334 116.202C54.1394 116.202 54.2189 116.255 54.3249 116.282C54.4309 116.282 54.5369 116.335 54.6429 116.361C54.8549 116.414 55.0934 116.441 55.3054 116.467C55.3849 116.467 55.4909 116.494 55.5704 116.52C55.8089 116.547 56.0739 116.573 56.3124 116.6C56.4184 116.6 56.5509 116.6 56.6569 116.626C56.7894 116.626 56.9219 116.626 57.0544 116.626C57.1339 116.626 57.2134 116.626 57.2929 116.626C57.3459 116.626 57.3989 116.626 57.4784 116.626C57.6109 116.626 57.7699 116.626 57.9024 116.626C64.1829 116.732 69.9599 118.958 74.5179 122.642C75.9489 123.808 77.2474 125.08 78.4134 126.511C82.2824 131.201 84.6144 137.217 84.6144 143.789C84.6144 144.213 85.0119 144.955 85.0119 144.955C85.6479 152.746 92.1669 158.867 100.09 158.867C108.093 158.867 114.665 152.64 115.195 144.769L115.248 144.743ZM43.7514 14.1775C43.5924 14.4955 43.5129 14.8135 43.5129 15.158C43.5129 22.2335 40.8099 28.673 36.3844 33.496C35.4569 34.503 34.4764 35.4305 33.3899 36.305C28.7259 40.068 22.7899 42.3205 16.3504 42.3205C16.2179 42.3205 16.0854 42.3205 15.9794 42.347C15.8204 42.347 15.6614 42.347 15.5024 42.347C15.3434 42.347 15.2109 42.347 15.0519 42.347C6.67791 42.347 -0.0795898 49.131 -0.0795898 57.4785C-0.0795898 65.8525 6.70441 72.61 15.0519 72.61C15.4229 72.61 15.7674 72.61 16.1384 72.5835C16.2444 72.5835 16.3504 72.5835 16.4299 72.5835C16.5624 72.5835 16.6949 72.5835 16.8274 72.5305C16.9334 72.5305 17.0659 72.504 17.1719 72.4775C17.3309 72.4775 17.4899 72.4245 17.6489 72.398C17.9404 72.345 18.2584 72.292 18.5499 72.2125C18.6029 72.2125 18.6559 72.2125 18.7089 72.186C18.7884 72.186 18.8944 72.133 18.9739 72.1065C19.0799 72.08 19.2124 72.0535 19.3184 72.0005C19.4244 71.974 19.5569 71.921 19.6629 71.8945C19.7689 71.868 19.9014 71.815 20.0074 71.7885C20.1134 71.762 20.2194 71.709 20.3254 71.6825C20.6169 71.5765 20.8819 71.4705 21.1469 71.338C21.2529 71.285 21.3589 71.2585 21.4649 71.2055C21.5709 71.1525 21.6769 71.0995 21.7564 71.0465C21.8624 70.9935 21.9684 70.9405 22.0479 70.8875C22.4189 70.702 22.7634 70.49 23.1079 70.278C23.2139 70.225 23.2934 70.1455 23.3994 70.0925C23.5054 70.0395 23.5849 69.96 23.6909 69.907C25.0954 68.9265 26.3409 67.7075 27.3479 66.303C27.4009 66.2235 27.4804 66.1175 27.5334 66.038C27.5864 65.9585 27.6659 65.8525 27.7189 65.7465C27.7719 65.667 27.8249 65.5875 27.8514 65.5345C27.9309 65.402 28.0104 65.2695 28.0899 65.137C28.1959 64.9515 28.3019 64.766 28.3814 64.5805C28.5139 64.342 28.6464 64.1035 28.7524 63.8385C28.8054 63.759 28.8319 63.653 28.8849 63.5735C28.9644 63.388 29.0439 63.2025 29.1234 63.017C29.1764 62.911 29.2029 62.805 29.2559 62.699C29.2824 62.593 29.3354 62.487 29.3619 62.381C29.3884 62.275 29.4414 62.169 29.4679 62.063C29.4944 61.957 29.5474 61.851 29.5739 61.745C29.6004 61.639 29.6269 61.533 29.6534 61.427C29.7064 61.1885 29.7859 60.9765 29.8124 60.738C29.8124 60.632 29.8654 60.4995 29.8919 60.3935C29.8919 60.2875 29.9449 60.155 29.9449 60.049C29.9449 59.943 29.9714 59.837 29.9979 59.731C29.9979 59.731 29.9979 59.7045 29.9979 59.678C29.9979 59.572 30.0244 59.466 30.0509 59.36C30.0509 59.3335 30.0509 59.307 30.0509 59.2805C30.0509 59.254 30.0509 59.2275 30.0509 59.201C30.0509 59.201 30.0509 59.1745 30.0509 59.148C30.0509 59.0155 30.0509 58.9095 30.0774 58.777C30.0774 58.5915 30.0774 58.406 30.0774 58.194C30.0774 57.6905 30.0774 57.187 30.1304 56.6835C30.4749 50.244 32.9924 44.3875 36.9674 39.8295C37.8419 38.849 38.7694 37.9215 39.7764 37.047C44.4934 32.9925 50.5884 30.475 57.2664 30.2895C57.5049 30.2895 57.7699 30.2895 58.0084 30.2895C58.5914 30.2895 59.1744 30.2895 59.7574 30.3425C66.0379 30.74 71.7354 33.2045 76.2139 37.047C77.5654 38.213 78.7844 39.5115 79.8974 40.8895C83.6604 45.633 85.9129 51.6485 85.9129 58.194C85.9129 58.5915 86.0189 58.883 86.1779 59.0685C86.1779 59.307 86.2309 59.5455 86.2574 59.784C86.2839 60.0225 86.3369 60.261 86.3899 60.473C86.4429 60.738 86.4959 61.003 86.5754 61.2415C86.6019 61.374 86.6284 61.48 86.6814 61.6125C86.7874 61.9835 86.8934 62.328 87.0259 62.699C87.0524 62.805 87.1054 62.911 87.1584 63.017C87.2114 63.123 87.2379 63.2555 87.2909 63.3615C87.3439 63.4675 87.3969 63.6 87.4499 63.706C87.7149 64.2625 87.9799 64.819 88.2979 65.3225C88.3509 65.4285 88.4304 65.5345 88.4834 65.6405C88.6159 65.8525 88.7484 66.038 88.8809 66.25C88.9604 66.356 89.0134 66.4355 89.0929 66.5415C89.8879 67.628 90.8419 68.582 91.9019 69.43C91.9814 69.483 92.0609 69.5625 92.1669 69.6155C92.3789 69.7745 92.5644 69.907 92.7764 70.0395C92.8824 70.0925 92.9619 70.172 93.0679 70.225C93.1739 70.3045 93.2799 70.3575 93.3859 70.4105C93.4919 70.4635 93.5979 70.543 93.7039 70.596C94.0219 70.7815 94.3399 70.9405 94.6844 71.0995C94.7904 71.1525 94.8964 71.2055 95.0024 71.2585C95.1084 71.3115 95.2409 71.3645 95.3469 71.4175C95.4529 71.4705 95.5854 71.5235 95.6914 71.5765C95.9034 71.656 96.1154 71.7355 96.3539 71.815C96.4864 71.868 96.6454 71.921 96.7779 71.9475C96.8839 71.974 96.9899 72.0005 97.0959 72.027C97.3079 72.08 97.4934 72.133 97.7054 72.186C97.8114 72.2125 97.9439 72.239 98.0499 72.2655C98.1294 72.2655 98.2089 72.292 98.2619 72.3185C98.3414 72.3185 98.4209 72.345 98.5269 72.3715C98.6064 72.3715 98.7124 72.398 98.8184 72.4245C98.9244 72.451 99.0039 72.451 99.1099 72.4775C99.1894 72.4775 99.2954 72.4775 99.3749 72.504C99.4809 72.504 99.5869 72.504 99.6929 72.5305C99.7459 72.5305 99.7989 72.5305 99.8519 72.5305C99.9579 72.5305 100.064 72.5305 100.196 72.5305C100.329 72.5305 100.435 72.5305 100.567 72.5305C100.806 72.5305 101.044 72.5305 101.283 72.5305C109.657 72.5305 116.414 65.7465 116.414 57.399C116.414 56.3655 116.308 55.3585 116.123 54.4045C116.123 54.272 116.07 54.166 116.043 54.0335C115.964 53.689 115.884 53.3445 115.778 53C115.752 52.894 115.699 52.7615 115.672 52.6555C115.619 52.523 115.566 52.364 115.513 52.2315C115.487 52.1255 115.434 52.0195 115.407 51.94C115.354 51.834 115.328 51.7015 115.275 51.5955C115.222 51.4895 115.169 51.3835 115.142 51.251C115.089 51.145 115.036 51.039 114.983 50.933C114.93 50.827 114.877 50.721 114.824 50.615C114.771 50.509 114.718 50.403 114.665 50.297C114.612 50.191 114.559 50.085 114.48 49.979C114.427 49.873 114.374 49.767 114.294 49.661C114.241 49.555 114.162 49.449 114.109 49.343C114.056 49.237 113.976 49.131 113.923 49.0515C113.87 48.9455 113.791 48.866 113.738 48.76C113.526 48.4685 113.314 48.177 113.102 47.8855C112.943 47.7 112.81 47.5145 112.651 47.329C112.492 47.1435 112.492 47.1435 112.413 47.064C112.333 46.9845 112.254 46.8785 112.174 46.799C111.989 46.6135 111.803 46.428 111.618 46.2425C111.538 46.1895 111.485 46.11 111.406 46.057C111.22 45.898 111.061 45.739 110.849 45.6065C110.77 45.527 110.664 45.4475 110.558 45.3945C110.478 45.315 110.372 45.262 110.266 45.1825C110.213 45.1295 110.134 45.0765 110.081 45.05C110.001 44.997 109.922 44.944 109.842 44.891C109.789 44.8645 109.736 44.8115 109.657 44.785C109.551 44.732 109.445 44.6525 109.365 44.5995L109.074 44.414C108.968 44.361 108.862 44.2815 108.756 44.2285C108.65 44.1755 108.544 44.1225 108.438 44.043C108.332 43.99 108.226 43.937 108.12 43.884C107.775 43.6985 107.431 43.566 107.086 43.407C106.98 43.3805 106.901 43.3275 106.795 43.301C106.689 43.248 106.556 43.2215 106.45 43.1685C106.344 43.1155 106.212 43.089 106.106 43.036C106 43.0095 105.867 42.9565 105.761 42.93C105.708 42.93 105.629 42.877 105.549 42.877C105.443 42.8505 105.337 42.824 105.231 42.7975C105.152 42.7975 105.072 42.7445 104.966 42.7445C104.86 42.7445 104.781 42.6915 104.675 42.665C104.569 42.665 104.463 42.612 104.357 42.5855C104.145 42.5325 103.906 42.506 103.694 42.4795C103.615 42.4795 103.509 42.453 103.429 42.4265C103.191 42.4 102.926 42.3735 102.687 42.347C102.581 42.347 102.449 42.347 102.343 42.3205C102.21 42.3205 102.078 42.3205 101.945 42.3205C101.866 42.3205 101.786 42.3205 101.707 42.3205C101.654 42.3205 101.601 42.3205 101.521 42.3205C101.389 42.3205 101.23 42.3205 101.097 42.3205C94.8169 42.2145 89.0399 39.9885 84.4819 36.305C83.0509 35.139 81.7524 33.867 80.5864 32.436C76.7174 27.7455 74.3854 21.73 74.3854 15.158C74.3854 14.734 73.9879 13.992 73.9879 13.992C73.3254 6.22749 66.8064 0.105988 58.8564 0.105988C50.8534 0.105988 44.2814 6.33349 43.7514 14.204V14.1775Z" fill="#7E6842"/>
</g>
<defs>
<clipPath id="clip0_295_4">
<rect width="159" height="159" fill="white"/>
</clipPath>
</defs>
</svg>
