<svg width="22" height="21" viewBox="0 0 22 21" fill="none" xmlns="http://www.w3.org/2000/svg">
<path d="M21.4832 14.8996C21.4832 18.7217 19.1532 21.0002 15.2449 21.0002H13.9671C13.3766 21.0002 12.8934 20.5277 12.8934 19.9502V13.8916C12.8934 13.6081 13.1296 13.3666 13.4195 13.3666L15.3093 13.3351C15.4596 13.3246 15.5885 13.2196 15.6207 13.0726L15.9965 11.0671C16.0287 10.8781 15.8784 10.6996 15.6744 10.6996L13.3873 10.7311C13.0867 10.7311 12.8505 10.5001 12.8397 10.2166L12.7968 7.64407C12.7968 7.47606 12.9364 7.32907 13.1189 7.32907L15.6958 7.28706C15.8784 7.28706 16.0179 7.15057 16.0179 6.97207L15.975 4.45203C15.975 4.27353 15.8354 4.13704 15.6529 4.13704L12.7538 4.17905C10.9715 4.21055 9.55416 5.63855 9.58637 7.38156L9.64005 10.2691C9.65079 10.5631 9.41457 10.7941 9.11393 10.8046L7.82547 10.8256C7.64294 10.8256 7.50336 10.9621 7.50336 11.1406L7.53557 13.1356C7.53557 13.3141 7.67515 13.4506 7.85768 13.4506L9.14614 13.4296C9.44678 13.4296 9.683 13.6606 9.69374 13.9441L9.79037 19.9292C9.80111 20.5172 9.31794 21.0002 8.71665 21.0002H6.2471C2.33876 21.0002 0.00878906 18.7217 0.00878906 14.8891V6.10055C0.00878906 2.27852 2.33876 0 6.2471 0H15.2449C19.1532 0 21.4832 2.27852 21.4832 6.10055V14.8996Z" fill="url(#paint0_linear_566_97)"/>
<defs>
<linearGradient id="paint0_linear_566_97" x1="10.746" y1="0" x2="10.746" y2="21.0002" gradientUnits="userSpaceOnUse">
<stop stop-color="#CE0404"/>
<stop offset="1" stop-color="#510000"/>
</linearGradient>
</defs>
</svg>
