<svg width="43" height="43" viewBox="0 0 43 43" fill="none" xmlns="http://www.w3.org/2000/svg">
<path d="M42.9662 30.7602C42.9662 38.4067 38.3063 42.9651 30.4897 42.9651H27.9343C26.7532 42.9651 25.7869 42.0198 25.7869 40.8644V28.7436C25.7869 28.1764 26.2593 27.6932 26.8391 27.6932L30.6186 27.6302C30.9192 27.6092 31.1769 27.3991 31.2413 27.105L31.9929 23.0928C32.0573 22.7146 31.7567 22.3575 31.3487 22.3575L26.7747 22.4205C26.1734 22.4205 25.701 21.9584 25.6795 21.3912L25.5936 16.2446C25.5936 15.9084 25.8728 15.6144 26.2378 15.6144L31.3916 15.5303C31.7567 15.5303 32.0359 15.2573 32.0359 14.9001L31.95 9.85849C31.95 9.50138 31.6708 9.22831 31.3057 9.22831L25.5077 9.31236C21.943 9.37538 19.1084 12.2323 19.1728 15.7194L19.2802 21.4962C19.3017 22.0844 18.8292 22.5466 18.2279 22.5676L15.651 22.6096C15.286 22.6096 15.0068 22.8827 15.0068 23.2398L15.0713 27.2311C15.0713 27.5882 15.3504 27.8613 15.7155 27.8613L18.2924 27.8193C18.8936 27.8193 19.3661 28.2814 19.3876 28.8486L19.5808 40.8224C19.6023 41.9988 18.636 42.9651 17.4334 42.9651H12.4943C4.67772 42.9651 0.0178223 38.4067 0.0178223 30.7392V13.1566C0.0178223 5.51012 4.67772 0.95166 12.4943 0.95166H30.4897C38.3063 0.95166 42.9662 5.51012 42.9662 13.1566V30.7602Z" fill="white"/>
</svg>
