<svg width="22" height="21" viewBox="0 0 22 21" fill="none" xmlns="http://www.w3.org/2000/svg">
<path d="M10.7396 5.11477C7.6927 5.11477 5.23506 7.51813 5.23506 10.4977C5.23506 13.4774 7.6927 15.8807 10.7396 15.8807C13.7865 15.8807 16.2441 13.4774 16.2441 10.4977C16.2441 7.51813 13.7865 5.11477 10.7396 5.11477ZM10.7396 13.9974C8.77061 13.9974 7.16092 12.4279 7.16092 10.4977C7.16092 8.56756 8.76582 6.99811 10.7396 6.99811C12.7134 6.99811 14.3183 8.56756 14.3183 10.4977C14.3183 12.4279 12.7086 13.9974 10.7396 13.9974ZM17.7532 4.89458C17.7532 5.59263 17.1783 6.15014 16.4693 6.15014C15.7555 6.15014 15.1854 5.58794 15.1854 4.89458C15.1854 4.20121 15.7603 3.63902 16.4693 3.63902C17.1783 3.63902 17.7532 4.20121 17.7532 4.89458ZM21.3989 6.16888C21.3175 4.48699 20.9247 2.99718 19.6647 1.76973C18.4095 0.54228 16.8861 0.158116 15.1662 0.0737876C13.3936 -0.0245959 8.08074 -0.0245959 6.30818 0.0737876C4.5931 0.153431 3.06965 0.537595 1.80969 1.76505C0.549735 2.9925 0.161687 4.4823 0.0754538 6.16419C-0.0251513 7.89761 -0.0251513 13.0932 0.0754538 14.8266C0.156896 16.5085 0.549735 17.9983 1.80969 19.2258C3.06965 20.4532 4.58831 20.8374 6.30818 20.9217C8.08074 21.0201 13.3936 21.0201 15.1662 20.9217C16.8861 20.8421 18.4095 20.4579 19.6647 19.2258C20.9199 17.9983 21.3127 16.5085 21.3989 14.8266C21.4995 13.0932 21.4995 7.9023 21.3989 6.16888ZM19.109 16.6865C18.7353 17.6048 18.0119 18.3122 17.0681 18.6823C15.6549 19.2304 12.3014 19.104 10.7396 19.104C9.17782 19.104 5.81952 19.2258 4.41105 18.6823C3.47207 18.3169 2.74867 17.6095 2.37021 16.6865C1.80969 15.3045 1.93904 12.025 1.93904 10.4977C1.93904 8.97046 1.81448 5.68633 2.37021 4.30896C2.74388 3.39071 3.46728 2.68329 4.41105 2.31318C5.82431 1.76505 9.17782 1.89154 10.7396 1.89154C12.3014 1.89154 15.6597 1.76973 17.0681 2.31318C18.0071 2.67861 18.7305 3.38603 19.109 4.30896C19.6695 5.69101 19.5401 8.97046 19.5401 10.4977C19.5401 12.025 19.6695 15.3092 19.109 16.6865Z" fill="url(#paint0_linear_566_98)"/>
<defs>
<linearGradient id="paint0_linear_566_98" x1="10.7372" y1="0" x2="10.7372" y2="20.9955" gradientUnits="userSpaceOnUse">
<stop stop-color="#A30202"/>
<stop offset="1" stop-color="#4E0000"/>
</linearGradient>
</defs>
</svg>
