<svg width="43" height="43" viewBox="0 0 43 43" fill="none" xmlns="http://www.w3.org/2000/svg">
<path d="M21.479 11.1844C15.3853 11.1844 10.47 15.9926 10.47 21.9537C10.47 27.9148 15.3853 32.723 21.479 32.723C27.5727 32.723 32.488 27.9148 32.488 21.9537C32.488 15.9926 27.5727 11.1844 21.479 11.1844ZM21.479 28.9552C17.5411 28.9552 14.3217 25.8153 14.3217 21.9537C14.3217 18.0921 17.5315 14.9522 21.479 14.9522C25.4265 14.9522 28.6363 18.0921 28.6363 21.9537C28.6363 25.8153 25.4169 28.9552 21.479 28.9552ZM35.5061 10.7439C35.5061 12.1404 34.3563 13.2558 32.9383 13.2558C31.5107 13.2558 30.3705 12.131 30.3705 10.7439C30.3705 9.35669 31.5203 8.23196 32.9383 8.23196C34.3563 8.23196 35.5061 9.35669 35.5061 10.7439ZM42.7975 13.2933C42.6346 9.92843 41.8489 6.94789 39.329 4.49222C36.8187 2.03656 33.7719 1.26799 30.3322 1.09928C26.7871 0.902453 16.1613 0.902453 12.6162 1.09928C9.18612 1.25862 6.13925 2.02719 3.61936 4.48285C1.09946 6.93852 0.323371 9.91906 0.150906 13.2839C-0.0503021 16.7518 -0.0503021 27.1462 0.150906 30.6141C0.313789 33.979 1.09946 36.9595 3.61936 39.4152C6.13925 41.8708 9.17654 42.6394 12.6162 42.8081C16.1613 43.0049 26.7871 43.0049 30.3322 42.8081C33.7719 42.6488 36.8187 41.8802 39.329 39.4152C41.8394 36.9595 42.625 33.979 42.7975 30.6141C42.9987 27.1462 42.9987 16.7612 42.7975 13.2933ZM38.2176 34.3351C37.4703 36.1722 36.0235 37.5875 34.136 38.3279C31.3095 39.4245 24.6025 39.1715 21.479 39.1715C18.3555 39.1715 11.6389 39.4152 8.82203 38.3279C6.94408 37.5969 5.4973 36.1816 4.74037 34.3351C3.61936 31.5702 3.87805 25.0092 3.87805 21.9537C3.87805 18.8982 3.62894 12.3279 4.74037 9.57227C5.48772 7.7352 6.9345 6.31992 8.82203 5.57947C11.6485 4.48285 18.3555 4.73592 21.479 4.73592C24.6025 4.73592 31.319 4.49222 34.136 5.57947C36.0139 6.31054 37.4607 7.72583 38.2176 9.57227C39.3386 12.3372 39.0799 18.8982 39.0799 21.9537C39.0799 25.0092 39.3386 31.5795 38.2176 34.3351Z" fill="white"/>
</svg>
