<svg width="20" height="20" viewBox="0 0 30 30" fill="none" xmlns="http://www.w3.org/2000/svg">
<g clip-path="url(#clip0_568_100)">
<path d="M23.625 8.62969C23.625 6.34219 22.7163 4.14839 21.0988 2.53089C19.4813 0.91339 17.2875 0.00468731 15 0.00468731C12.7125 0.00468731 10.5187 0.91339 8.9012 2.53089C7.2837 4.14839 6.375 6.34219 6.375 8.62969C6.375 13.3922 15 25.4344 15 25.4344C15 25.4344 23.625 13.3922 23.625 8.62969ZM9.375 8.62969C9.375 7.51717 9.7049 6.42963 10.323 5.5046C10.9411 4.57958 11.8196 3.85861 12.8474 3.43286C13.8752 3.00712 15.0062 2.89573 16.0974 3.11277C17.1885 3.32981 18.1908 3.86554 18.9775 4.65221C19.7641 5.43888 20.2999 6.44116 20.5169 7.5323C20.734 8.62345 20.6226 9.75445 20.1968 10.7823C19.7711 11.8101 19.0501 12.6886 18.1251 13.3067C17.2001 13.9248 16.1125 14.2547 15 14.2547C13.5082 14.2547 12.0774 13.6621 11.0225 12.6072C9.96763 11.5523 9.375 10.1215 9.375 8.62969Z" fill="url(#paint0_linear_568_100)"/>
<path d="M19.3408 20.1563C18.6939 21.2109 18.0658 22.1859 17.5127 23.0203C19.8564 23.3391 21.4971 24.0891 21.4971 24.9703C21.4971 26.1328 18.5908 27.0797 15.0002 27.0797C11.4096 27.0797 8.50332 26.1422 8.50332 24.9703C8.50332 24.0844 10.1533 23.3344 12.4924 23.0203C11.9393 22.1859 11.3111 21.2063 10.6643 20.1516C4.99238 20.7938 0.895508 22.6969 0.895508 24.9516C0.895508 27.7406 7.20957 30 15.0002 30C22.7908 30 29.1049 27.7406 29.1049 24.9516C29.1049 22.6969 25.008 20.7938 19.3408 20.1563Z" fill="url(#paint1_linear_568_100)"/>
</g>
<defs>
<linearGradient id="paint0_linear_568_100" x1="15" y1="0.00468731" x2="15" y2="25.4344" gradientUnits="userSpaceOnUse">
<stop stop-color="#650700"/>
<stop offset="1" stop-color="#B41408"/>
</linearGradient>
<linearGradient id="paint1_linear_568_100" x1="15.0002" y1="20.1516" x2="15.0002" y2="30" gradientUnits="userSpaceOnUse">
<stop stop-color="#650700"/>
<stop offset="1" stop-color="#B41408"/>
</linearGradient>
<clipPath id="clip0_568_100">
<rect width="30" height="30" fill="white"/>
</clipPath>
</defs>
</svg>
