<svg width="36" height="44" viewBox="0 0 36 44" fill="none" xmlns="http://www.w3.org/2000/svg">
<path d="M23.408 2.424C20.2507 2.424 17.4987 3 15.152 4.152C12.848 5.26133 10.928 6.73333 9.392 8.568C7.856 10.36 6.704 12.3867 5.936 14.648C5.21067 16.9093 4.848 19.1493 4.848 21.368C4.848 23.8853 5.33867 26.36 6.32 28.792C7.30133 31.1813 8.64533 33.3147 10.352 35.192C12.1013 37.0267 14.128 38.52 16.432 39.672C18.736 40.7813 21.232 41.336 23.92 41.336C24.688 41.336 25.584 41.2507 26.608 41.08C27.6747 40.9093 28.72 40.5893 29.744 40.12C30.768 39.608 31.7067 38.904 32.56 38.008C33.456 37.112 34.1387 35.9387 34.608 34.488H35.248V41.592C34.608 41.592 33.9253 41.6773 33.2 41.848C32.5173 42.0187 31.7493 42.2107 30.896 42.424C29.7867 42.7227 28.5493 43 27.184 43.256C25.8613 43.512 24.4533 43.64 22.96 43.64C19.248 43.64 15.984 43 13.168 41.72C10.352 40.44 8.00533 38.776 6.128 36.728C4.25067 34.68 2.84267 32.376 1.904 29.816C0.965333 27.2133 0.496 24.5893 0.496 21.944C0.496 19.2987 0.965333 16.6747 1.904 14.072C2.84267 11.4693 4.272 9.144 6.192 7.096C8.112 5.00533 10.5227 3.32 13.424 2.04C16.3253 0.759998 19.7387 0.119999 23.664 0.119999C25.072 0.119999 26.3307 0.247999 27.44 0.503998C28.592 0.759997 29.616 1.016 30.512 1.272C31.152 1.48533 31.728 1.656 32.24 1.784C32.7947 1.86933 33.328 1.912 33.84 1.912V9.016H33.2C32.944 7.69333 32.4747 6.60533 31.792 5.752C31.1093 4.856 30.2987 4.17333 29.36 3.704C28.464 3.23467 27.4827 2.91467 26.416 2.744C25.392 2.53067 24.3893 2.424 23.408 2.424Z" fill="white"/>
</svg>
