<svg width="20" height="20" viewBox="0 0 30 30" fill="none" xmlns="http://www.w3.org/2000/svg">
<path d="M23.0539 29.9997C16.942 29.9918 11.0828 27.5555 6.76108 23.2252C2.43935 18.8949 0.00792203 13.024 0 6.90007C0 5.0701 0.725511 3.31509 2.01693 2.02111C3.30835 0.727123 5.05988 0.00017144 6.88623 0.00017144C7.27296 -0.00278022 7.65905 0.0323885 8.03892 0.10517C8.40615 0.15962 8.76716 0.250052 9.11676 0.375166C9.36264 0.461609 9.58175 0.610863 9.75241 0.808168C9.92307 1.00547 10.0394 1.244 10.0898 1.50015L12.1407 10.5C12.196 10.7443 12.1893 10.9986 12.1214 11.2396C12.0534 11.4807 11.9262 11.7008 11.7515 11.88C11.5569 12.09 11.5419 12.105 9.7006 13.065C11.1751 16.3062 13.7623 18.9091 16.991 20.3999C17.9641 18.5399 17.979 18.5249 18.1886 18.3299C18.3674 18.1548 18.5871 18.0274 18.8277 17.9593C19.0683 17.8912 19.3221 17.8845 19.5659 17.9399L28.5479 19.9949C28.7954 20.0524 29.0241 20.1721 29.2127 20.3427C29.4013 20.5132 29.5434 20.7291 29.6257 20.9699C29.7521 21.3259 29.8473 21.6923 29.9102 22.0648C29.9704 22.4418 30.0005 22.823 30 23.2048C29.9724 25.027 29.2265 26.7642 27.9251 28.0372C26.6237 29.3103 24.8726 30.0158 23.0539 29.9997Z" fill="url(#paint0_linear_568_101)"/>
<defs>
<linearGradient id="paint0_linear_568_101" x1="15" y1="0" x2="15" y2="30" gradientUnits="userSpaceOnUse">
<stop stop-color="#7E0800"/>
<stop offset="1" stop-color="#AB1207"/>
</linearGradient>
</defs>
</svg>
