<svg width="15" height="13" viewBox="0 0 15 13" fill="none" xmlns="http://www.w3.org/2000/svg">
<path d="M1.5 0.5C1.10218 0.5 0.720644 0.658035 0.43934 0.93934C0.158035 1.22064 0 1.60218 0 2V5C0.8325 5 1.5 5.675 1.5 6.5C1.5 6.89782 1.34196 7.27935 1.06066 7.56066C0.779356 7.84196 0.397825 8 0 8V11C0 11.3978 0.158035 11.7794 0.43934 12.0607C0.720644 12.342 1.10218 12.5 1.5 12.5H13.5C13.8978 12.5 14.2794 12.342 14.5607 12.0607C14.842 11.7794 15 11.3978 15 11V8C14.6022 8 14.2206 7.84196 13.9393 7.56066C13.658 7.27935 13.5 6.89782 13.5 6.5C13.5 5.6675 14.175 5 15 5V2C15 1.1675 14.325 0.5 13.5 0.5H1.5ZM10.125 2.75L11.25 3.875L4.875 10.25L3.75 9.125L10.125 2.75ZM5.1075 2.78C5.8425 2.78 6.435 3.3725 6.435 4.1075C6.435 4.45957 6.29514 4.79723 6.04618 5.04618C5.79723 5.29514 5.45958 5.435 5.1075 5.435C4.3725 5.435 3.78 4.8425 3.78 4.1075C3.78 3.75543 3.91986 3.41777 4.16882 3.16882C4.41777 2.91986 4.75543 2.78 5.1075 2.78ZM9.8925 7.565C10.6275 7.565 11.22 8.1575 11.22 8.8925C11.22 9.24457 11.0801 9.58223 10.8312 9.83118C10.5822 10.0801 10.2446 10.22 9.8925 10.22C9.1575 10.22 8.565 9.6275 8.565 8.8925C8.565 8.54042 8.70486 8.20277 8.95382 7.95382C9.20277 7.70486 9.54042 7.565 9.8925 7.565Z" fill="black"/>
</svg>
