<svg width="44" height="44" viewBox="0 0 44 44" fill="none" xmlns="http://www.w3.org/2000/svg">
<path d="M22.8681 42.2813C24.3205 41.3574 25.7771 40.4379 27.2294 39.5141C27.8869 39.0973 28.5529 38.6848 29.1931 38.2379C30.7142 37.1766 32.1408 35.9692 33.4083 34.6113C35.9177 31.9172 37.8255 28.7246 39.033 25.2485C40.0169 22.4082 40.438 19.4133 40.438 16.4141V10.6949C40.438 9.9258 39.9009 9.25548 39.1748 9.03634C38.6505 8.87736 38.1306 8.71408 37.6279 8.50353C37.7654 8.55939 37.9029 8.61955 38.0404 8.67541C37.1423 8.29298 36.3001 7.80314 35.5267 7.21017L35.8748 7.48087C35.1099 6.88791 34.4224 6.2047 33.8294 5.43986L34.1001 5.78791C33.5072 5.01447 33.013 4.16798 32.6306 3.26994C32.6865 3.40744 32.7466 3.54494 32.8025 3.68244C32.6736 3.37306 32.5533 3.05509 32.4501 2.73712C32.2181 2.01095 31.5693 1.47384 30.7915 1.47384H15.3701C14.6611 1.47384 13.9478 1.45236 13.2388 1.47384H13.2087C12.4267 1.47384 11.7822 2.01095 11.5501 2.73712C11.447 3.05939 11.331 3.37306 11.1978 3.68244C11.2537 3.54494 11.3138 3.40744 11.3697 3.26994C10.9873 4.16798 10.4931 5.01017 9.90015 5.78791L10.1708 5.43986C9.57788 6.2047 8.89038 6.88791 8.12554 7.48087L8.47358 7.21017C7.70015 7.80314 6.85366 8.29298 5.95991 8.67541C6.09741 8.61955 6.23491 8.55939 6.37241 8.50353C5.86538 8.71408 5.34976 8.87736 4.82554 9.03634C4.09937 9.25548 3.56226 9.9258 3.56226 10.6949V15.877C3.56226 16.7879 3.56226 17.6988 3.62671 18.6098C3.76421 20.4617 4.07788 22.3094 4.5978 24.0926C5.62905 27.6332 7.41655 30.8945 9.78843 33.709C11.6318 35.8961 13.8533 37.6664 16.2595 39.1918L21.0162 42.2082C21.0548 42.234 21.0978 42.2598 21.1365 42.2856C21.897 42.7668 23.0658 42.4703 23.4869 41.6668C23.9337 40.816 23.6802 39.832 22.8681 39.3164C22.0947 38.8266 21.3212 38.3367 20.5521 37.8469C19.5638 37.2195 18.5798 36.5965 17.5916 35.9692C16.8998 35.5309 16.2251 35.0625 15.572 34.5641L15.9201 34.8348C14.2958 33.5758 12.8349 32.1149 11.5759 30.4906L11.8466 30.8387C10.5662 29.1758 9.50054 27.3539 8.67983 25.4203C8.73569 25.5578 8.79585 25.6953 8.85171 25.8328C8.01382 23.8434 7.44233 21.7551 7.15444 19.6152C7.17593 19.7656 7.19741 19.9203 7.2146 20.0707C7.02983 18.6785 6.99976 17.2863 6.99976 15.8899V10.7121C6.57866 11.2664 6.15757 11.8164 5.73647 12.3707C7.2189 11.9238 8.65405 11.3309 9.91304 10.4242C11.4041 9.35002 12.6759 8.02658 13.6212 6.44533C14.1412 5.57736 14.558 4.63205 14.8673 3.66955C14.313 4.09064 13.763 4.51173 13.2087 4.93283H28.6302C29.3392 4.93283 30.0525 4.95002 30.7615 4.93283H30.7915C30.2373 4.51173 29.6873 4.09064 29.133 3.66955C30.2115 7.034 32.6607 9.96017 35.8748 11.4727C36.6482 11.8379 37.4431 12.1215 38.2638 12.3707C37.8427 11.8164 37.4216 11.2664 37.0005 10.7121V16.8051C37.0005 17.8965 36.9275 18.9879 36.7857 20.0707C36.8072 19.9203 36.8287 19.7656 36.8458 19.6152C36.5537 21.7508 35.9822 23.8434 35.1486 25.8328C35.2044 25.6953 35.2646 25.5578 35.3205 25.4203C34.4998 27.3539 33.4341 29.1758 32.1537 30.8387L32.4244 30.4906C31.1654 32.1149 29.7044 33.5758 28.0802 34.8348L28.4283 34.5641C27.4658 35.3074 26.4431 35.9477 25.4205 36.6008C24.2861 37.3227 23.1517 38.0402 22.0173 38.7621C21.7251 38.9469 21.4287 39.136 21.1365 39.3207C20.7626 39.557 20.4662 39.9137 20.3458 40.3477C20.2341 40.7602 20.2857 41.3059 20.5177 41.6711C21.0076 42.4274 22.056 42.7969 22.8681 42.2813Z" fill="black"/>
<path d="M13.2431 21.9098L17.656 26.3227L18.2833 26.95C18.9407 27.6074 20.0579 27.6074 20.7153 26.95L24.1228 23.5426L29.5153 18.15L30.7571 16.9082C31.3931 16.2723 31.4403 15.1035 30.7571 14.4762C30.0696 13.8445 29.004 13.7973 28.3251 14.4762L24.9177 17.8836L19.5251 23.2762L18.2833 24.518H20.7153L16.3025 20.1051L15.6751 19.4777C15.0392 18.8418 13.8704 18.7945 13.2431 19.4777C12.6114 20.1652 12.5642 21.2266 13.2431 21.9098Z" fill="black"/>
</svg>
