<svg width="37" height="38" viewBox="0 0 37 38" fill="none" xmlns="http://www.w3.org/2000/svg">
<path d="M18.5 0C13.5952 0.00548595 8.89282 1.95697 5.42458 5.42632C1.95635 8.89566 0.00548419 13.5995 0 18.5059C0.008218 23.4115 1.95996 28.1138 5.4276 31.5825C8.89524 35.0513 13.596 37.0036 18.5 37.0118C23.4065 37.0118 28.1121 35.0621 31.5815 31.5916C35.0509 28.1211 37 23.414 37 18.5059C37 13.5978 35.0509 8.89079 31.5815 5.42026C28.1121 1.94973 23.4065 0 18.5 0ZM29.7524 29.1846C28.7134 27.0882 27.1095 25.3241 25.1215 24.0911C23.1335 22.8581 20.8406 22.2055 18.5015 22.2067C16.1624 22.2079 13.8702 22.863 11.8835 24.0981C9.89683 25.3331 8.29471 27.099 7.25792 29.1964C4.49167 26.3265 2.95029 22.4926 2.96 18.5059C2.96 14.3831 4.59725 10.4292 7.51156 7.51397C10.4259 4.59872 14.3785 2.96095 18.5 2.96095C22.6215 2.96095 26.5741 4.59872 29.4884 7.51397C32.4028 10.4292 34.04 14.3831 34.04 18.5059C34.0493 22.487 32.5119 26.3159 29.7524 29.1846ZM18.5 7.40237C17.1828 7.40237 15.8951 7.7931 14.7999 8.52514C13.7047 9.25719 12.851 10.2977 12.347 11.515C11.8429 12.7324 11.711 14.0719 11.968 15.3642C12.2249 16.6565 12.8593 17.8436 13.7907 18.7753C14.7221 19.7071 15.9088 20.3416 17.2007 20.5986C18.4926 20.8557 19.8317 20.7238 21.0487 20.2195C22.2656 19.7153 23.3058 18.8614 24.0376 17.7658C24.7694 16.6702 25.16 15.3821 25.16 14.0645C25.16 13.1896 24.9877 12.3233 24.653 11.515C24.3183 10.7067 23.8278 9.9723 23.2093 9.35366C22.5909 8.73503 21.8567 8.2443 21.0487 7.90949C20.2406 7.57469 19.3746 7.40237 18.5 7.40237Z" fill="white"/>
</svg>
