<svg width="44" height="32" viewBox="0 0 44 32" fill="none" xmlns="http://www.w3.org/2000/svg">
<path d="M43.99 11.4989C44.0887 8.70262 43.4636 5.92723 42.1726 3.43046C41.2967 2.40598 40.0811 1.71461 38.7376 1.47684C33.1807 0.983596 27.6008 0.781433 22.0219 0.871213C16.4632 0.777358 10.9034 0.972998 5.36603 1.4573C4.27126 1.65211 3.25812 2.15444 2.45026 2.90298C0.652869 4.52449 0.453159 7.29864 0.253449 9.64299C-0.036306 13.8581 -0.036306 18.0874 0.253449 22.3025C0.311226 23.622 0.512061 24.9317 0.852579 26.2097C1.09338 27.1964 1.58057 28.1093 2.27052 28.8667C3.08388 29.6549 4.1206 30.1858 5.2462 30.3905C9.55178 30.9104 13.8901 31.1258 18.2274 31.0352C25.2172 31.1329 31.3483 31.0352 38.5978 30.4882C39.751 30.296 40.8169 29.7644 41.6534 28.9643C42.2125 28.4172 42.6301 27.7474 42.8716 27.0107C43.5858 24.8668 43.9366 22.6231 43.9101 20.3684C43.99 19.2744 43.99 12.6711 43.99 11.4989ZM17.5084 21.5406V9.44763L29.3312 15.5234C26.0161 17.3207 21.6424 19.3525 17.5084 21.5406Z" fill="white"/>
</svg>
