<svg width="22" height="17" viewBox="0 0 22 17" fill="none" xmlns="http://www.w3.org/2000/svg">
<path d="M21.9952 6.27103C22.0446 4.87331 21.732 3.48605 21.0865 2.23805C20.6485 1.72597 20.0407 1.3804 19.369 1.26154C16.5905 1.015 13.8005 0.913951 11.011 0.958827C8.23168 0.911914 5.45175 1.0097 2.68304 1.25178C2.13565 1.34915 1.62908 1.60024 1.22514 1.9744C0.326438 2.7849 0.226582 4.17154 0.126726 5.34335C-0.0181533 7.45023 -0.0181533 9.56425 0.126726 11.6711C0.155614 12.3307 0.256033 12.9853 0.426293 13.6241C0.546695 14.1173 0.790291 14.5736 1.13527 14.9522C1.54195 15.3462 2.06032 15.6115 2.62312 15.7139C4.77593 15.9737 6.94511 16.0814 9.11376 16.0361C12.6087 16.0849 15.6743 16.0361 19.2991 15.7627C19.8757 15.6667 20.4087 15.4009 20.8269 15.001C21.1064 14.7275 21.3152 14.3928 21.436 14.0245C21.7931 12.9529 21.9685 11.8314 21.9552 10.7044C21.9952 10.1575 21.9952 6.85694 21.9952 6.27103ZM8.75428 11.2903V5.2457L14.6658 8.28264C13.0081 9.18103 10.8213 10.1966 8.75428 11.2903Z" fill="url(#paint0_linear_566_99)"/>
<defs>
<linearGradient id="paint0_linear_566_99" x1="11.0092" y1="0.947418" x2="11.0092" y2="16.0528" gradientUnits="userSpaceOnUse">
<stop stop-color="#BA0000"/>
<stop offset="1" stop-color="#440000"/>
</linearGradient>
</defs>
</svg>
